<?xml version="1.0" standalone="no"?>
<!DOCTYPE svg PUBLIC "-//W3C//DTD SVG 20010904//EN"
 "http://www.w3.org/TR/2001/REC-SVG-20010904/DTD/svg10.dtd">
<svg version="1.0" xmlns="http://www.w3.org/2000/svg"
 width="1000.000000pt" height="829.000000pt" viewBox="0 0 1000.000000 829.000000"
 preserveAspectRatio="xMidYMid meet">

<g transform="translate(0.000000,829.000000) scale(0.100000,-0.100000)"
fill="#000000" stroke="none">
<path d="M7115 8270 c-16 -18 -17 -48 -4 -87 2 -6 -30 -68 -71 -137 -71 -120
-76 -126 -107 -126 -48 0 -72 -61 -39 -99 12 -14 5 -38 -49 -181 -60 -155 -65
-165 -94 -173 -17 -4 -35 -15 -40 -25 -9 -17 -16 -17 -145 2 -93 14 -136 24
-136 33 0 21 -38 53 -63 53 -51 0 -76 -71 -38 -109 18 -18 17 -21 -3 -131 -15
-78 -26 -115 -36 -118 -8 -3 -25 -14 -37 -25 -22 -20 -23 -20 -182 -2 -148 17
-160 20 -165 40 -14 55 -99 49 -114 -8 -7 -28 -20 -35 -183 -102 l-175 -72
-26 20 c-25 18 -28 19 -59 3 l-33 -17 -183 83 c-151 69 -183 87 -183 104 0 52
-53 75 -95 42 l-28 -22 -216 44 c-229 46 -251 52 -251 75 0 16 -37 45 -58 45
-7 0 -24 -12 -39 -26 l-25 -25 -236 21 c-129 11 -239 23 -244 26 -4 3 -8 12
-8 19 0 17 -30 35 -58 35 -24 0 -52 -30 -52 -56 0 -16 -42 -35 -241 -112 -214
-82 -242 -90 -255 -77 -20 20 -68 19 -84 -1 -19 -22 -16 -75 4 -89 15 -11 13
-26 -29 -181 -76 -283 -72 -271 -100 -278 -29 -7 -49 -40 -42 -68 5 -16 -23
-41 -148 -134 -139 -103 -156 -113 -180 -104 -35 13 -75 -6 -82 -40 -5 -25
-17 -30 -244 -100 -223 -67 -241 -71 -258 -56 -44 40 -108 3 -97 -56 6 -32 -2
-44 -149 -218 -146 -173 -158 -185 -192 -187 -19 0 -40 -6 -45 -11 -7 -7 -54
16 -144 71 -118 72 -134 85 -134 109 0 52 -62 78 -101 42 -19 -17 -18 -17
-304 72 -101 31 -111 37 -125 67 -11 23 -23 33 -43 35 -56 7 -88 -58 -51 -99
15 -17 12 -30 -34 -176 -27 -87 -53 -168 -57 -180 -4 -16 -14 -23 -30 -23 -38
0 -62 -69 -34 -97 7 -7 -17 -65 -83 -197 -86 -173 -95 -186 -120 -186 -18 0
-33 -8 -44 -25 -16 -24 -16 -28 0 -63 l17 -38 -68 -199 c-61 -179 -71 -200
-93 -205 -14 -3 -32 -18 -40 -33 -13 -24 -13 -30 1 -55 13 -23 21 -27 62 -27
42 0 54 -6 130 -64 72 -57 83 -69 83 -95 0 -17 2 -36 4 -42 3 -6 -40 -68 -94
-137 -90 -115 -102 -127 -131 -127 -75 0 -89 -93 -18 -118 27 -9 32 -23 106
-276 73 -249 77 -267 63 -288 -23 -32 -20 -66 9 -92 l24 -23 -9 -209 c-5 -115
-10 -218 -10 -229 0 -11 -10 -25 -22 -30 -47 -20 -27 -115 23 -115 10 0 29 5
42 11 21 10 53 -5 278 -125 229 -122 255 -138 260 -164 3 -16 9 -34 13 -41 4
-6 -42 -115 -106 -246 -105 -219 -114 -235 -139 -235 -38 0 -53 -23 -46 -72 5
-40 1 -48 -119 -225 -122 -178 -126 -183 -160 -183 -40 0 -61 -31 -50 -75 10
-39 49 -53 89 -32 32 17 32 17 211 -52 174 -67 180 -70 194 -105 17 -44 49
-55 89 -31 28 16 31 15 233 -62 190 -73 205 -81 208 -105 4 -36 24 -50 64 -46
23 2 36 10 43 26 9 21 14 22 146 22 190 0 257 -8 264 -31 12 -38 88 -36 101 3
6 21 8 21 313 14 299 -7 306 -8 323 -29 l17 -22 -1250 -3 -1249 -2 0 -400 0
-400 5000 0 5000 0 0 400 0 400 -3714 0 -3714 0 11 25 c7 14 19 27 27 29 8 3
104 12 213 22 l197 18 20 -22 c32 -34 76 -29 100 11 20 33 22 34 198 70 98 20
184 37 190 37 7 0 21 -9 32 -20 11 -11 26 -20 34 -20 24 0 66 41 66 64 0 20
24 34 169 104 l169 82 30 -17 c28 -16 31 -16 56 0 35 23 36 77 3 104 l-24 18
6 257 6 256 28 22 c22 17 28 29 25 52 -3 28 9 39 216 193 198 147 222 162 243
152 31 -14 71 5 79 38 4 18 16 27 43 34 20 6 105 28 189 50 152 39 153 40 173
20 41 -41 104 -9 97 50 -2 27 9 42 95 129 88 88 101 98 128 94 20 -3 37 2 50
14 19 17 23 17 117 -10 203 -57 202 -57 202 -75 0 -25 32 -51 62 -51 32 0 58
29 58 63 0 24 15 37 113 100 61 40 118 77 124 81 7 4 22 2 34 -4 31 -17 65 -4
79 30 10 25 10 34 -4 55 -9 14 -21 25 -28 25 -8 0 -9 49 -6 172 5 171 5 171
32 190 30 22 36 77 12 98 -13 10 -11 22 13 88 16 42 45 123 66 180 29 78 41
102 55 102 25 0 50 27 57 61 5 26 26 40 210 135 151 78 208 103 216 95 16 -16
63 -13 81 5 33 32 8 104 -36 104 -11 0 -28 51 -68 200 -48 183 -51 200 -36
215 9 9 16 20 16 24 0 5 126 11 280 15 l281 8 20 -26 c35 -45 109 -25 109 30
0 25 -27 64 -45 64 -17 0 -20 10 -41 156 l-17 121 22 22 c17 17 22 31 19 53
-4 27 7 40 124 151 123 116 131 121 168 118 32 -2 41 2 55 23 19 29 13 57 -17
86 -19 18 -20 25 -13 253 8 234 8 235 31 246 13 6 26 22 30 36 8 32 -10 75
-31 75 -23 0 -30 28 -55 223 l-22 178 21 23 c11 12 21 33 21 47 0 21 24 37
186 128 167 93 188 103 210 92 14 -6 31 -11 39 -11 22 0 55 37 55 63 1 19 26
33 186 105 170 76 188 82 203 67 27 -24 58 -18 83 15 l22 30 222 0 c214 0 223
-1 229 -20 13 -41 90 -37 101 5 7 28 -2 26 243 60 l183 26 15 -20 c9 -14 25
-21 47 -21 51 0 74 39 50 86 -14 27 -13 34 42 151 48 102 61 123 79 123 44 0
69 56 45 101 -8 13 -21 19 -45 19 -31 0 -53 -18 -70 -57 0 -1 -93 -14 -205
-28 l-204 -26 -17 22 c-20 27 -62 28 -90 3 -19 -17 -23 -17 -127 4 -227 47
-257 56 -260 77 -8 42 -66 60 -96 29 -9 -8 -16 -29 -16 -45 0 -27 -17 -40
-220 -175 -212 -142 -220 -146 -249 -135 -37 16 -69 1 -76 -37 -4 -15 -9 -33
-13 -40 -4 -7 -106 -73 -226 -146 -212 -129 -220 -133 -246 -119 -32 16 -28
-1 -75 266 l-38 208 22 23 c11 12 21 32 21 44 0 24 -32 62 -53 62 -9 0 -26 84
-59 278 -45 271 -45 277 -27 295 11 10 19 31 19 47 0 51 -44 75 -91 49 -17 -8
-46 3 -175 72 -133 70 -154 85 -154 105 0 54 -70 83 -105 44z m254 -163 c138
-74 154 -86 157 -111 2 -16 9 -36 17 -45 12 -14 0 -63 -106 -398 -66 -211
-123 -383 -126 -383 -6 0 -132 947 -131 981 0 15 19 39 30 39 3 0 74 -37 159
-83z m-209 57 c0 -3 27 -211 60 -462 33 -252 62 -475 65 -497 4 -29 -39 50
-153 280 -151 304 -158 321 -144 343 13 20 13 30 3 57 -11 32 -9 38 64 159 42
69 83 126 91 126 8 0 14 -3 14 -6z m473 -504 l47 -280 -20 -20 c-11 -11 -20
-31 -20 -43 0 -21 -21 -35 -145 -99 -105 -54 -148 -72 -154 -64 -10 12 226
786 239 786 4 0 28 -126 53 -280z m-518 -176 c85 -175 155 -321 155 -325 0
-18 -27 -6 -236 108 -190 104 -214 119 -214 142 0 13 -6 32 -14 40 -12 14 -10
25 14 86 15 39 44 114 65 168 29 76 41 97 56 97 16 0 51 -64 174 -316z m-548
-54 c116 -19 154 -33 135 -52 -4 -3 -86 -56 -181 -117 -215 -137 -213 -137
-180 28 19 99 25 114 46 122 13 5 26 16 29 24 8 19 0 19 151 -5z m2607 -65
c88 -19 160 -36 161 -37 1 -2 9 -17 17 -34 14 -30 13 -35 -41 -157 -78 -177
-73 -179 -229 56 -123 184 -140 224 -88 212 11 -3 93 -21 180 -40z m-390 -176
c-85 -164 -101 -189 -121 -189 -13 0 -32 -5 -42 -12 -16 -10 -33 -6 -102 23
-135 57 -137 53 124 228 122 82 226 146 230 144 4 -3 -36 -90 -89 -194z m1090
172 c-29 -29 -590 -369 -597 -362 -5 5 17 64 48 133 50 111 60 125 87 134 17
5 36 18 42 29 6 11 12 22 14 25 4 6 405 58 411 53 3 -2 0 -7 -5 -12z m-3117
-17 c1 0 9 -90 18 -200 8 -109 17 -221 20 -249 5 -42 3 -52 -14 -62 -17 -10
-44 4 -217 116 -268 173 -266 153 -30 303 157 100 183 114 201 104 11 -6 21
-11 22 -12z m385 -152 c153 -81 154 -78 -64 -224 -95 -63 -184 -122 -198 -131
-23 -15 -27 -15 -47 1 -19 16 -22 34 -39 260 -22 308 -29 297 131 211 61 -32
158 -85 217 -117z m1926 -4 c89 -135 120 -189 116 -204 -5 -20 -14 -21 -147
-27 -78 -4 -180 -7 -227 -7 -80 0 -86 2 -96 24 -10 22 -1 45 83 210 126 246
110 246 271 4z m-4843 127 c11 -2 25 -15 31 -29 10 -22 -8 -58 -193 -388 -113
-200 -208 -366 -212 -370 -3 -4 -11 -4 -17 0 -6 4 -35 180 -65 392 l-54 385
24 25 24 26 221 -19 c121 -10 230 -20 241 -22z m5677 14 c-2 -8 -26 -65 -54
-126 -43 -94 -55 -113 -73 -113 -22 0 -47 -22 -57 -50 -5 -12 -53 -22 -213
-44 -113 -15 -208 -26 -211 -24 -6 7 590 377 601 374 6 -2 9 -10 7 -17z
m-6252 1 c0 -5 11 -12 25 -16 14 -3 25 -9 25 -13 0 -4 25 -180 55 -391 43
-299 52 -386 43 -392 -9 -5 -33 12 -68 46 -30 29 -170 161 -310 292 -213 199
-255 243 -258 269 l-3 30 238 92 c131 50 241 92 246 92 4 1 7 -3 7 -9z m958
-85 c118 -25 216 -45 219 -45 2 0 3 -10 1 -21 -2 -15 -134 -111 -475 -345
-260 -178 -475 -324 -478 -324 -3 0 -5 4 -5 9 0 4 92 172 205 372 183 326 208
364 230 364 14 1 33 9 42 18 10 9 24 17 33 17 8 0 111 -20 228 -45z m3137
-231 c49 -271 49 -273 -53 -194 -37 29 -126 98 -198 153 -177 137 -177 134 10
232 l139 73 31 -17 30 -17 41 -230z m-2610 63 c114 -53 181 -89 183 -99 3 -13
-42 -31 -230 -92 -128 -42 -450 -147 -715 -235 -266 -87 -483 -157 -483 -155
0 1 213 149 474 328 462 317 475 325 504 314 25 -10 34 -9 54 5 12 9 25 16 28
16 3 0 86 -37 185 -82z m975 48 c68 -8 126 -15 127 -15 2 0 3 -5 3 -12 0 -6 6
-19 14 -27 12 -14 -6 -61 -134 -355 -81 -187 -151 -341 -157 -343 -6 -2 -25
121 -46 299 -55 454 -53 419 -26 451 20 23 30 26 59 22 19 -3 91 -12 160 -20z
m-292 -12 c15 -9 28 -18 30 -19 9 -5 89 -720 81 -728 -5 -5 -10 -8 -12 -5 -2
2 -106 123 -232 269 -125 146 -234 272 -242 281 -10 12 -12 26 -6 49 8 31 17
36 173 101 91 37 169 68 173 68 4 1 20 -7 35 -16z m-2359 -314 c264 -248 333
-319 307 -319 -13 0 -705 91 -728 96 -16 3 -28 11 -28 17 0 6 -7 19 -17 29
-15 17 -13 32 42 238 51 188 62 220 79 223 12 2 24 5 27 6 3 0 146 -130 318
-290z m3098 137 c184 -119 199 -131 195 -155 -3 -23 -47 -50 -372 -229 -203
-111 -374 -202 -380 -202 -5 0 -10 6 -10 13 0 8 65 164 144 348 126 290 148
334 168 337 13 2 27 8 33 13 5 5 12 8 16 7 3 -2 96 -61 206 -132z m719 114 c7
-7 -16 -154 -68 -447 -70 -389 -88 -468 -101 -452 -2 2 -62 131 -132 287 -111
245 -127 285 -117 305 6 12 12 33 14 46 2 20 41 50 188 148 102 68 190 123
196 123 5 0 15 -5 20 -10z m282 -144 c169 -132 192 -153 192 -178 0 -15 5 -36
11 -46 9 -14 5 -34 -21 -95 -51 -122 -48 -124 -233 192 -86 148 -157 273 -157
276 0 12 14 2 208 -149z m-67 -128 c84 -144 153 -269 152 -278 -7 -77 -7 -77
-243 -226 -184 -116 -228 -139 -242 -130 -11 6 -15 18 -12 31 2 11 36 198 74
415 88 494 78 450 100 450 13 0 59 -70 171 -262z m1030 216 c64 -26 86 -40 85
-52 -2 -11 -64 -45 -182 -99 -98 -46 -185 -83 -191 -83 -22 0 -14 22 50 135
42 75 67 110 77 108 9 -2 24 3 35 11 27 21 28 21 126 -20z m-192 19 c0 -5 -28
-57 -62 -118 -58 -102 -65 -110 -95 -113 -24 -2 -36 -10 -44 -28 -11 -24 -13
-24 -140 -24 -88 0 -129 3 -126 11 4 13 438 278 456 279 6 0 12 -3 11 -7z
m-3009 -71 c0 -5 -105 -99 -232 -209 -223 -191 -235 -200 -269 -196 -35 5 -62
-10 -71 -38 -3 -8 -126 -14 -428 -19 -234 -5 -426 -7 -427 -6 -2 1 167 58 375
127 274 90 939 311 1050 348 1 1 2 -3 2 -7z m74 -28 c19 5 57 -35 264 -274
133 -154 242 -287 242 -295 0 -8 -8 -15 -17 -15 -28 0 -966 140 -993 148 -15
4 -25 15 -25 26 0 11 90 96 235 221 197 170 238 201 253 193 11 -5 29 -7 41
-4z m1382 -183 c5 -5 20 -11 33 -13 21 -3 40 -40 152 -283 70 -154 128 -282
128 -285 0 -3 -5 -13 -12 -22 -12 -16 -52 -10 -538 80 -400 75 -524 101 -526
112 -2 10 116 80 365 217 202 111 372 202 378 202 5 1 14 -3 20 -8z m1336 -26
c2 -14 -362 -217 -378 -211 -12 5 -12 12 2 43 9 21 23 57 32 81 13 32 22 42
39 42 13 0 31 12 45 30 l22 31 118 -3 c69 -2 119 -7 120 -13z m-4690 -196
c180 -23 326 -44 324 -46 -2 -2 -246 -39 -542 -83 -297 -44 -554 -82 -571 -85
-18 -3 -33 -2 -33 3 0 6 66 60 148 120 143 107 149 111 189 105 34 -4 44 -2
60 17 15 18 25 21 58 17 22 -3 187 -24 367 -48z m1328 -49 c0 -5 8 -17 18 -27
18 -17 17 -28 -38 -307 -52 -270 -57 -289 -80 -301 -24 -13 -39 -1 -397 294
-220 181 -371 312 -370 321 2 13 37 16 222 20 414 10 645 10 645 0z m620 -70
c538 -80 523 -77 518 -91 -2 -5 -263 -120 -581 -254 -500 -211 -581 -243 -598
-232 -10 6 -19 16 -19 21 0 5 25 139 56 297 54 276 57 288 80 293 14 4 27 13
30 21 4 8 14 15 23 15 9 0 230 -32 491 -70z m-1600 53 c0 -5 -55 -44 -123 -88
-67 -44 -309 -203 -537 -355 -389 -257 -417 -274 -440 -263 -24 11 -28 26 -68
242 l-42 231 20 20 c11 11 20 26 20 33 0 10 154 36 578 99 317 47 580 86 585
87 4 1 7 -2 7 -6z m20 -28 c0 -3 -93 -192 -207 -420 -182 -363 -211 -415 -230
-415 -13 0 -32 -9 -44 -21 l-20 -20 -282 65 c-155 36 -286 66 -290 66 -5 0 -7
12 -5 26 3 21 84 79 528 374 471 313 550 363 550 345z m459 -310 c351 -291
361 -300 361 -335 0 -35 -4 -38 -202 -180 -173 -123 -208 -145 -237 -143 -18
1 -35 4 -37 6 -9 9 -282 952 -277 960 2 4 10 4 17 0 7 -5 176 -143 375 -308z
m3423 289 c21 -8 22 -14 48 -225 l22 -177 -22 -22 -22 -22 -256 69 c-218 58
-257 71 -257 86 0 13 65 60 225 162 124 79 230 142 235 139 6 -2 17 -7 27 -10z
m-3773 -201 c231 -785 219 -738 199 -763 l-17 -22 -319 51 c-175 28 -324 51
-330 51 -6 0 -18 15 -27 34 l-16 34 207 411 c150 296 212 411 225 411 13 0 29
-44 78 -207z m2666 -4 c270 -50 494 -95 500 -100 6 -6 6 -12 0 -18 -6 -5 -109
-64 -229 -131 -198 -110 -221 -120 -242 -109 -13 6 -36 9 -53 6 -27 -6 -49 11
-280 214 -138 121 -251 224 -251 230 0 8 12 9 33 5 17 -4 253 -47 522 -97z
m-896 -288 c-221 -328 -245 -361 -270 -361 -15 0 -35 -7 -43 -16 -15 -14 -44
-4 -318 104 -234 93 -304 124 -306 138 -2 16 89 58 580 265 321 136 587 243
592 239 4 -5 -101 -171 -235 -369z m582 139 l253 -221 1 -43 c0 -42 -3 -46
-200 -254 -184 -195 -224 -228 -240 -203 -9 16 -98 910 -91 926 3 8 10 15 15
15 5 0 123 -99 262 -220z m-3751 190 c11 -11 26 -20 33 -20 9 0 26 -73 55
-232 54 -293 57 -287 -90 -202 -57 33 -192 112 -301 175 -160 92 -197 118
-195 134 3 16 41 31 238 91 129 40 236 73 238 73 1 1 11 -8 22 -19z m3454 -7
c2 -16 24 -224 48 -463 l42 -436 -22 -22 -22 -22 -272 93 -272 94 -9 32 c-7
29 -3 40 34 95 22 33 131 195 240 359 110 163 206 297 213 297 8 0 17 -12 20
-27z m1505 -226 c195 -52 235 -66 242 -83 6 -18 -33 -52 -316 -272 -325 -254
-361 -276 -349 -214 6 37 84 583 84 594 0 4 6 8 13 8 8 0 22 9 32 20 11 13 25
18 39 14 12 -3 126 -33 255 -67z m-5160 -122 c250 -145 291 -172 291 -193 0
-12 12 -34 26 -49 l26 -25 -7 -232 c-7 -277 -14 -376 -26 -376 -8 0 -629 1031
-629 1045 0 14 37 -6 319 -170z m4793 163 c15 -12 12 -41 -29 -318 -24 -168
-48 -308 -51 -311 -4 -4 -16 -10 -28 -13 -16 -5 -53 26 -196 166 -235 230
-239 202 50 365 119 66 222 121 228 122 5 1 17 -5 26 -11z m-5121 -17 c17 -15
619 -1034 615 -1039 -6 -5 -9 -4 -565 340 -367 228 -425 266 -426 288 -1 14
-4 30 -6 36 -2 6 68 97 155 202 154 184 161 191 190 185 17 -3 34 -8 37 -12z
m-1068 -108 c167 -51 191 -60 200 -83 6 -14 19 -32 29 -40 18 -15 17 -28 -16
-379 -19 -200 -38 -366 -41 -369 -3 -3 -7 -3 -10 0 -3 2 -93 207 -199 454
-192 442 -203 474 -163 474 6 0 96 -26 200 -57z m-63 -395 c229 -529 213 -491
200 -486 -6 2 -121 104 -256 227 -224 206 -244 227 -239 251 4 18 0 34 -13 50
-18 23 -18 25 34 187 65 204 61 193 77 193 9 0 82 -156 197 -422z m6910 319
c0 -12 -5 -117 -10 -233 l-9 -211 -33 -33 -32 -33 -196 7 c-314 10 -400 17
-400 31 0 7 145 125 321 263 270 211 325 250 340 241 11 -5 19 -20 19 -32z
m-6401 -117 c126 -79 129 -81 134 -121 5 -40 1 -47 -170 -287 -97 -136 -184
-256 -194 -267 -19 -19 -19 -19 -19 5 0 14 14 180 31 370 29 318 34 346 53
362 12 10 24 18 28 18 4 0 66 -36 137 -80z m3926 -202 c48 -19 61 -29 63 -49
2 -13 8 -28 12 -33 5 -5 -30 -86 -78 -181 -115 -232 -110 -231 -230 -46 -49
75 -144 220 -211 323 -68 103 -120 191 -117 197 5 7 223 -75 561 -211z m1506
29 c107 -104 180 -181 177 -189 -7 -18 -825 -95 -841 -79 -12 12 -2 23 239
276 216 226 182 226 425 -8z m-2081 156 c11 -10 418 -638 415 -641 -1 -2 -20
4 -41 13 -87 37 -394 147 -627 225 -233 77 -248 83 -245 105 2 17 55 60 206
168 198 141 205 145 245 140 23 -3 44 -8 47 -10z m-1695 -114 c249 -56 295
-72 295 -99 0 -4 -140 -118 -310 -254 -191 -152 -317 -246 -328 -244 -19 4
-20 55 -13 436 l3 173 30 28 c17 16 36 28 42 26 6 -2 133 -32 281 -66z m-920
-323 c264 -163 481 -303 483 -310 2 -11 -56 -15 -310 -22 l-313 -9 -20 23
c-11 12 -33 26 -49 30 -26 7 -41 34 -166 292 -75 157 -135 289 -133 293 3 5
10 6 17 4 6 -3 227 -138 491 -301z m-524 275 c4 -3 68 -133 142 -289 118 -245
135 -286 124 -303 -15 -23 11 -24 -367 6 -173 14 -316 25 -316 25 -1 0 -5 11
-8 25 -5 21 23 67 181 289 173 244 190 264 213 259 14 -3 28 -8 31 -12z m2199
-96 c162 -26 302 -49 310 -52 9 -3 -6 -11 -35 -20 -189 -55 -828 -248 -1065
-321 -157 -49 -287 -87 -289 -85 -3 2 4 10 15 17 10 8 152 120 314 250 233
186 299 234 315 229 34 -11 59 -5 74 17 10 15 21 20 40 16 14 -3 159 -26 321
-51z m-2976 -205 c135 -123 246 -227 246 -231 0 -4 -4 -10 -9 -13 -9 -6 -653
40 -696 49 -11 3 -26 17 -32 31 -12 25 -6 40 79 205 94 182 101 190 155 185 6
-1 122 -102 257 -226z m4954 114 c144 -48 262 -93 262 -99 0 -7 -481 -140
-767 -211 -15 -4 -23 0 -28 15 -5 15 18 68 82 191 80 154 90 170 114 170 15 0
32 7 39 15 7 9 18 14 24 12 6 -2 129 -44 274 -93z m-1638 -4 c11 -11 26 -20
34 -20 10 0 31 -71 75 -251 52 -215 59 -253 47 -265 -8 -7 -16 -19 -18 -25 -2
-7 -233 13 -738 65 -404 42 -753 80 -775 84 -39 8 -37 9 105 54 197 63 1226
375 1243 377 4 1 16 -8 27 -19z m426 -94 c316 -106 437 -149 524 -187 43 -18
50 -25 50 -50 0 -26 -5 -29 -87 -54 -113 -35 -406 -114 -550 -149 l-111 -28
-21 21 c-12 12 -27 21 -34 21 -8 0 -33 84 -73 250 -55 224 -59 251 -45 265 8
8 20 15 26 15 6 0 150 -47 321 -104z m2432 62 c-3 -7 -193 -158 -422 -335
-340 -263 -421 -321 -435 -313 -21 11 -31 130 -31 368 0 139 1 146 24 167 13
12 25 27 28 35 3 9 106 23 388 50 453 44 453 44 448 28z m650 -4 c59 -5 72 -9
72 -23 0 -10 -56 -71 -125 -135 -122 -115 -127 -118 -171 -119 -45 0 -46 1
-180 134 -74 73 -134 140 -134 148 0 12 37 13 233 7 127 -3 265 -9 305 -12z
m-622 -29 c6 -15 -65 -235 -165 -515 -45 -127 -50 -135 -77 -140 -17 -3 -33
-14 -39 -28 -8 -18 -18 -22 -50 -22 -79 1 -516 38 -523 44 -3 4 -2 14 4 23 11
18 823 651 837 652 4 1 10 -6 13 -14z m206 -125 c131 -126 136 -132 131 -164
-5 -33 15 -67 46 -77 8 -3 21 -59 32 -136 l20 -132 -27 -35 -28 -34 -190 -1
c-105 -1 -228 -4 -272 -7 l-82 -7 -16 35 c-16 34 -16 36 30 164 25 71 75 214
110 319 60 178 73 204 100 205 6 0 72 -59 146 -130z m-1166 45 l27 -25 5 -255
c4 -226 3 -255 -11 -255 -8 0 -17 -6 -19 -12 -3 -9 -39 2 -119 37 -526 229
-684 302 -687 315 -2 12 83 38 380 117 211 55 386 102 390 102 4 1 19 -10 34
-24z m-5342 -203 c187 -15 331 -31 332 -37 5 -14 -891 -419 -910 -412 -9 4
-16 10 -16 14 0 4 31 98 69 208 58 170 72 200 90 203 12 2 29 14 39 27 21 29
-10 30 396 -3z m4433 -33 c7 -7 -24 -84 -103 -257 -96 -211 -116 -248 -136
-250 -12 -2 -28 -8 -34 -13 -17 -14 -489 281 -489 305 0 16 32 27 230 78 218
55 495 134 504 144 7 7 16 5 28 -7z m497 -160 c215 -95 392 -172 393 -173 1
-1 3 -18 5 -38 3 -35 -6 -48 -167 -237 -169 -199 -170 -200 -210 -201 l-41 0
-95 183 c-53 100 -142 278 -199 395 -90 189 -108 242 -84 242 4 0 183 -77 398
-171z m-4097 127 l281 -22 30 -32 c17 -18 36 -32 44 -32 9 0 42 -108 106 -343
51 -188 92 -348 92 -356 0 -7 -6 -11 -14 -8 -26 10 -925 800 -920 809 8 12 69
9 381 -16z m3788 -241 c69 -143 160 -323 201 -400 42 -77 76 -144 77 -150 3
-16 -10 -11 -335 118 -235 93 -308 126 -308 139 0 9 -5 28 -11 41 -9 20 4 56
101 269 91 200 115 244 131 243 15 -1 48 -61 144 -260z m-4297 222 c-15 -12
-160 -145 -322 -296 l-295 -275 -53 -1 c-51 0 -57 2 -140 68 -132 104 -158 81
372 323 245 112 450 203 455 204 6 0 -2 -10 -17 -23z m77 -7 c7 -11 135 -601
135 -619 -1 -9 -10 -27 -21 -40 l-19 -24 -373 32 c-204 17 -379 31 -388 31 -9
0 -19 9 -22 19 -7 28 634 622 663 614 11 -3 22 -9 25 -13z m504 -385 c264
-230 456 -404 451 -409 -12 -12 -724 92 -729 107 -5 15 -44 53 -59 58 -13 4
-154 628 -145 642 3 4 9 7 14 5 5 -2 216 -183 468 -403z m988 383 c9 -20 -18
-69 -218 -388 -161 -259 -233 -366 -247 -368 -23 -4 -13 -35 -132 401 -75 275
-80 300 -66 316 9 10 16 23 16 29 0 8 22 12 63 13 34 1 148 5 252 8 345 13
320 14 332 -11z m912 -66 c650 -68 735 -79 745 -95 10 -16 -19 -48 -229 -252
-191 -185 -243 -231 -257 -224 -9 5 -28 4 -46 -2 -28 -9 -46 1 -368 213 -187
123 -410 270 -496 327 -87 57 -158 105 -158 107 0 9 116 -1 809 -74z m-290
-287 c424 -279 471 -312 469 -334 -3 -22 -34 -38 -318 -156 -272 -114 -317
-130 -331 -119 -8 8 -24 14 -35 14 -16 0 -41 67 -173 455 -85 251 -150 462
-147 471 5 14 9 14 35 -3 15 -10 240 -157 500 -328z m-403 -138 c145 -434 152
-460 136 -477 -16 -17 -32 -15 -393 63 l-376 80 -11 30 c-11 28 -2 45 219 399
194 311 234 369 252 366 18 -3 41 -65 173 -461z m1786 161 c126 -78 232 -146
234 -152 19 -57 30 -46 -429 -465 -383 -351 -457 -415 -457 -397 0 2 78 257
174 566 167 543 174 563 202 576 16 7 33 13 37 13 5 1 112 -63 239 -141z
m-491 -438 c-97 -314 -180 -569 -185 -567 -6 2 -43 133 -82 292 l-72 288 20
21 c14 15 18 29 13 51 -6 28 6 42 227 257 128 125 238 227 244 228 6 0 -68
-257 -165 -570z m2349 440 c140 -11 256 -20 256 -20 38 -3 -160 -203 -804
-815 -69 -65 -82 -74 -82 -53 0 7 45 166 100 353 161 545 147 502 175 509 13
3 29 15 35 26 13 25 4 25 320 0z m-436 -167 c-24 -82 -80 -272 -125 -425 -45
-152 -85 -282 -90 -290 -14 -23 -26 2 -79 175 -48 158 -50 170 -35 187 11 12
16 31 13 55 -3 33 8 48 171 240 96 113 178 205 182 205 3 0 -13 -66 -37 -147z
m550 -242 c-92 -188 -172 -341 -178 -340 -34 4 -48 -4 -61 -33 -13 -33 -13
-33 -245 -92 -127 -32 -234 -55 -238 -51 -4 3 22 34 58 68 257 245 576 552
690 664 74 72 136 130 138 128 2 -1 -72 -156 -164 -344z m262 134 c44 -166 51
-201 39 -208 -8 -4 -17 -23 -20 -41 -6 -32 -16 -38 -212 -141 -117 -61 -209
-103 -214 -98 -13 13 322 693 340 690 10 -1 32 -68 67 -202z m-1561 -61 c160
-63 295 -118 302 -122 6 -4 13 -16 15 -26 2 -16 -56 -54 -324 -213 -297 -175
-330 -192 -349 -181 -21 13 -21 15 -16 322 l5 309 23 18 c13 10 31 16 39 14 8
-3 146 -57 305 -121z m-392 -212 l-1 -313 -26 -20 c-14 -11 -26 -28 -26 -38 0
-20 -24 -24 -513 -91 -317 -44 -337 -46 -336 -27 0 6 99 102 221 212 121 110
317 289 436 398 119 108 224 196 232 194 13 -2 15 -44 13 -315z m-4063 213
c379 -31 390 -32 390 -51 0 -8 14 -23 30 -32 17 -9 33 -26 35 -37 8 -31 135
-718 135 -728 0 -5 -8 -7 -18 -5 -27 5 -980 861 -974 876 3 9 18 11 51 7 25
-3 183 -17 351 -30z m29 -399 c241 -215 459 -411 487 -435 27 -24 41 -41 31
-38 -18 7 -1221 538 -1223 541 -1 0 -4 17 -8 36 -5 33 0 43 93 160 147 187 86
213 620 -264z m870 294 c183 -27 335 -50 337 -52 23 -24 -5 -62 -268 -349
-323 -356 -317 -350 -343 -343 -18 5 -28 47 -89 378 -68 371 -69 374 -50 399
15 21 25 25 49 21 17 -2 180 -27 364 -54z m2002 23 l37 -18 71 -289 c67 -271
70 -289 54 -301 -10 -7 -20 -12 -23 -11 -3 2 -184 79 -403 171 -343 145 -398
171 -395 188 2 15 69 47 308 147 168 71 307 129 309 129 3 1 21 -7 42 -16z
m-1151 -178 c195 -42 359 -80 364 -85 6 -6 4 -11 -5 -14 -8 -3 -75 -28 -149
-55 -804 -292 -1282 -462 -1292 -459 -6 2 125 152 291 334 295 324 302 330
335 326 27 -3 37 1 48 17 9 15 20 20 33 17 11 -3 180 -39 375 -81z m3075 58
c16 -4 30 -36 73 -178 52 -172 52 -173 35 -204 -11 -18 -24 -29 -33 -27 -8 3
-163 7 -345 11 -351 6 -428 11 -423 27 7 19 642 388 658 382 8 -4 24 -9 35
-11z m-5093 -326 c227 -101 504 -224 615 -273 112 -49 203 -92 203 -95 0 -10
-81 -16 -569 -45 -403 -24 -455 -26 -465 -12 -6 8 -25 22 -41 31 -29 15 -34
28 -109 281 -64 217 -76 269 -66 281 7 8 14 15 15 15 2 0 189 -82 417 -183z
m2410 136 c14 -16 10 -46 -36 -302 -38 -213 -55 -285 -66 -289 -8 -2 -24 -14
-35 -26 l-20 -23 -652 62 c-359 34 -655 64 -658 67 -4 3 13 13 37 22 147 56
1395 505 1404 505 6 1 18 -7 26 -16z m466 -142 c464 -196 433 -182 430 -200
-2 -10 -137 -54 -458 -148 -250 -73 -460 -133 -466 -133 -6 0 -18 8 -27 18
-16 17 -14 37 33 297 28 153 50 282 50 286 0 4 11 10 25 13 14 4 25 11 25 16
0 6 3 10 6 10 3 0 175 -72 382 -159z m2913 23 c17 -15 16 -21 -17 -113 -101
-274 -92 -256 -126 -269 -30 -11 -33 -9 -189 114 -136 109 -156 129 -150 147
7 17 44 30 227 78 120 32 223 58 228 58 5 1 17 -6 27 -15z m-778 -110 c142 -6
177 -10 175 -20 -2 -8 -183 -137 -402 -288 -343 -235 -402 -272 -418 -263 -17
11 -18 31 -18 268 l0 256 28 32 27 32 215 -6 c118 -3 295 -8 393 -11z m-710
-19 l27 -24 0 -259 0 -259 -24 -12 c-22 -12 -55 3 -433 203 -418 221 -452 240
-442 250 3 3 126 22 275 42 148 20 332 46 409 59 77 12 145 23 150 23 6 1 22
-10 38 -23z m910 -43 c-2 -6 -73 -181 -159 -389 -86 -208 -158 -384 -161 -390
-3 -7 -14 -13 -24 -13 -11 0 -27 -5 -37 -11 -14 -8 -56 11 -224 102 -183 100
-207 116 -210 140 -4 26 16 42 396 303 221 152 406 274 411 272 6 -2 9 -8 8
-14z m249 -116 c130 -104 147 -121 142 -142 -4 -17 1 -30 20 -49 25 -25 26
-30 25 -143 -1 -64 -4 -144 -8 -177 -5 -53 -8 -58 -18 -40 -26 42 -333 666
-333 676 0 8 4 8 13 2 6 -6 78 -63 159 -127z m-22 -223 c116 -235 167 -350
160 -357 -5 -5 -10 -24 -10 -40 0 -28 -11 -38 -125 -113 -110 -73 -127 -82
-148 -72 l-24 11 -11 331 c-7 183 -15 389 -19 460 -3 70 -3 127 0 127 4 0 83
-156 177 -347z m-176 -141 l16 -423 -27 -23 -26 -23 -76 23 c-42 12 -109 32
-148 44 -52 15 -73 26 -73 37 0 9 -6 24 -14 32 -13 14 5 64 145 401 87 212
162 392 165 400 15 35 24 -65 38 -468z m-1944 389 c0 -5 -178 -198 -396 -430
-346 -368 -400 -422 -422 -419 -26 3 -28 11 -92 261 -64 247 -66 258 -48 274
10 9 18 24 18 34 0 14 14 23 53 34 28 8 232 69 452 134 220 66 408 119 418
120 9 1 17 -3 17 -8z m536 -223 c379 -200 423 -226 424 -247 0 -31 27 -61 55
-61 18 0 34 -31 117 -229 l96 -230 -16 -34 c-17 -34 -19 -35 -194 -81 -97 -25
-183 -46 -191 -46 -8 0 -20 7 -27 15 -7 8 -24 15 -39 15 -24 0 -51 42 -347
553 -177 303 -319 555 -317 560 2 4 7 7 10 7 3 0 196 -100 429 -222z m-511
189 c-4 -11 -327 -1121 -370 -1268 -13 -47 -20 -58 -41 -62 -23 -4 -47 19
-212 202 -185 205 -187 208 -187 253 l1 45 399 425 c220 234 403 424 407 422
4 -3 5 -10 3 -17z m105 -742 c39 -385 72 -709 73 -720 2 -12 -7 -28 -22 -41
l-26 -21 -195 53 c-269 73 -270 73 -270 88 0 8 -8 24 -18 36 -18 22 -14 35
177 692 156 534 197 664 203 641 4 -15 39 -343 78 -728z m260 220 c360 -621
334 -573 320 -590 -6 -8 -10 -26 -8 -40 3 -23 -20 -42 -217 -189 -193 -144
-222 -162 -240 -152 -11 6 -21 11 -22 11 -1 1 -27 246 -58 545 -30 300 -64
628 -75 729 -23 211 -24 229 -11 216 6 -6 146 -244 311 -530z m-2895 396 c-6
-6 -245 -143 -533 -305 -594 -336 -562 -324 -562 -205 0 36 3 141 7 233 6 162
7 168 29 176 12 5 25 18 29 29 3 12 12 21 18 22 7 0 206 13 442 28 480 32 584
36 570 22z m792 -51 c350 -33 640 -60 644 -60 4 0 11 -9 14 -21 6 -17 -40 -67
-261 -291 -266 -270 -267 -271 -311 -272 l-44 -1 -252 239 c-412 391 -468 446
-462 456 3 6 12 10 20 10 8 0 301 -27 652 -60z m-1003 -419 c-213 -392 -242
-440 -263 -441 -14 0 -32 -6 -40 -14 -14 -12 -50 5 -276 125 -219 116 -260
142 -262 161 -1 21 58 57 530 324 293 166 536 298 541 293 5 -4 -99 -206 -230
-448z m313 115 l36 -307 -22 -15 c-11 -8 -21 -26 -21 -39 0 -21 -22 -32 -256
-124 -140 -56 -260 -99 -265 -96 -5 4 -9 11 -9 16 0 9 430 808 467 868 10 15
18 20 25 13 5 -5 25 -147 45 -316z m325 26 c172 -164 332 -315 356 -336 23
-21 42 -47 42 -58 0 -20 -5 -20 -112 -14 -62 3 -200 9 -306 12 -190 6 -194 7
-202 29 -5 13 -18 26 -29 30 -26 8 -24 -3 -61 320 -35 310 -35 315 -15 315 8
0 155 -134 327 -298z m1088 154 c0 -1 29 -116 65 -256 57 -225 63 -256 50
-270 -8 -9 -15 -22 -15 -28 0 -9 -87 -12 -339 -12 -287 0 -340 2 -344 15 -4 9
86 108 263 288 236 240 273 274 295 269 14 -2 25 -5 25 -6z m2277 -291 c195
-106 201 -110 207 -145 5 -34 2 -39 -92 -132 -88 -87 -100 -96 -127 -91 -30 4
-34 13 -128 235 -53 127 -94 235 -91 240 9 14 15 11 231 -107z m-3209 -281
c213 -6 234 -8 243 -25 8 -16 -40 -79 -317 -411 -180 -216 -333 -400 -340
-408 -34 -36 -36 -1 -24 401 l13 392 31 33 c30 33 33 34 96 29 36 -3 170 -8
298 -11z m-465 -26 l27 -13 -6 -145 c-3 -80 -9 -259 -13 -398 -8 -245 -14
-284 -40 -268 -6 4 -122 134 -259 288 -229 262 -247 284 -245 316 2 19 4 36 5
37 7 6 484 193 494 194 5 1 22 -5 37 -11z m1497 -3 c0 -7 7 -18 15 -23 14 -7
5 -48 -63 -300 -44 -161 -81 -294 -83 -296 -2 -2 -13 -6 -24 -9 -15 -4 -29 5
-55 37 -19 24 -135 163 -258 309 -153 183 -220 270 -216 281 5 14 45 16 345
16 290 0 339 -2 339 -15z m-770 -240 c-29 -289 -27 -280 -55 -293 -14 -7 -28
-24 -32 -43 -8 -30 -19 -36 -292 -151 -156 -66 -285 -117 -288 -114 -7 7 -37
-30 345 429 192 230 328 385 333 380 5 -5 1 -91 -11 -208z m344 -113 c130
-156 236 -290 236 -298 0 -20 -20 -18 -299 24 -182 28 -246 42 -249 52 -3 8
-14 25 -25 37 l-20 22 23 233 c17 182 26 236 38 246 21 16 4 33 296 -316z
m708 118 c173 -192 186 -210 179 -236 -7 -27 -17 -31 -266 -106 -143 -43 -266
-77 -274 -76 -37 8 -34 32 45 326 80 298 79 295 124 300 3 0 89 -93 192 -208z
m-2078 -310 c141 -159 256 -294 256 -299 0 -6 -4 -12 -9 -15 -5 -3 -172 12
-372 34 -200 22 -369 40 -376 40 -6 0 -18 14 -27 30 -15 30 -13 34 99 265 110
228 115 235 143 235 26 0 59 -33 286 -290z m2272 15 c20 -20 63 -19 86 2 17
15 31 13 236 -42 119 -31 224 -61 232 -66 9 -5 -14 -9 -60 -9 -41 0 -286 -7
-543 -16 -258 -8 -472 -14 -478 -12 -9 3 474 155 499 157 7 1 20 -6 28 -14z
m-942 -115 c247 -37 275 -45 276 -75 0 -6 -70 -80 -155 -165 -140 -140 -159
-155 -190 -155 l-34 0 -96 197 c-82 167 -95 200 -85 217 6 12 14 21 18 21 4 0
124 -18 266 -40z m-336 0 c19 0 38 -32 123 -202 88 -178 98 -203 85 -216 -13
-13 -62 -4 -413 78 -219 51 -404 95 -410 97 -7 3 -13 10 -13 17 0 6 130 65
288 132 248 105 289 119 303 108 8 -8 25 -14 37 -14z m1872 -42 l32 -32 -7
-257 c-7 -257 -8 -258 -31 -274 -23 -15 -45 -5 -585 265 -309 155 -558 284
-555 288 5 5 746 33 1053 41 57 1 64 -1 93 -31z m-583 -318 c468 -231 551
-276 550 -293 -1 -16 -40 -39 -174 -105 -151 -74 -175 -83 -189 -71 -10 8 -32
14 -49 14 -30 0 -58 27 -330 320 -164 176 -318 342 -344 369 -25 27 -39 46
-31 44 8 -3 263 -128 567 -278z m-713 43 c-35 -120 -92 -316 -126 -435 -35
-120 -67 -217 -73 -215 -5 2 -30 104 -56 227 -46 222 -47 225 -27 239 16 10
19 21 15 50 -5 35 -1 40 156 198 88 89 164 160 168 158 3 -3 -22 -103 -57
-222z m500 -177 c258 -277 315 -344 310 -360 -4 -12 -8 -22 -9 -24 -1 -1 -89
-21 -194 -43 -172 -37 -194 -39 -204 -25 -7 8 -23 19 -36 24 -23 8 -34 42
-138 408 -62 219 -113 406 -113 414 0 19 0 18 384 -394z m-385 327 c135 -458
212 -749 202 -763 -6 -8 -14 -23 -17 -32 -4 -10 -9 -18 -13 -18 -3 0 -94 -9
-201 -20 -107 -11 -202 -20 -210 -19 -8 0 -23 11 -33 24 -18 25 -1 90 229 878
10 32 23 17 43 -50z m-1799 -29 c190 -21 348 -40 352 -43 4 -4 -238 -84 -539
-179 -344 -109 -550 -169 -556 -163 -6 6 38 78 118 195 114 169 129 186 155
186 28 0 60 22 60 41 0 6 15 8 33 5 17 -3 187 -22 377 -42z m359 -77 c-2 -2
-139 -112 -304 -244 -290 -231 -302 -239 -338 -235 -25 3 -44 -1 -55 -10 -15
-14 -36 -8 -202 56 -114 44 -186 77 -188 86 -2 12 122 54 540 186 473 149 567
177 547 161z m539 -80 c390 -92 393 -93 412 -124 10 -17 28 -34 39 -38 14 -4
23 -20 29 -53 72 -338 83 -405 74 -414 -8 -8 -151 93 -489 347 -263 197 -482
362 -487 366 -19 18 34 7 422 -84z m-533 -75 c-123 -528 -119 -514 -140 -523
-11 -5 -27 -14 -35 -20 -11 -8 -64 9 -220 69 -187 73 -205 82 -208 105 -3 23
31 54 303 271 168 135 312 243 319 240 10 -4 6 -35 -19 -142z m590 -218 c261
-197 474 -362 472 -367 -3 -11 -412 -11 -549 -1 -62 5 -77 10 -81 25 -3 10
-19 22 -38 26 -32 9 -35 14 -171 338 -75 182 -138 334 -138 339 0 4 7 6 14 3
8 -3 229 -167 491 -363z m-381 18 c126 -301 136 -331 125 -355 l-12 -27 -193
0 c-190 0 -193 0 -205 23 -7 12 -16 25 -22 28 -6 4 18 124 62 315 87 371 79
344 95 344 8 0 70 -135 150 -328z m568 -739 c23 -20 23 -57 1 -74 -15 -11 -16
-11 -5 1 27 31 11 72 -33 83 -19 4 -19 5 -1 6 11 0 28 -6 38 -16z m-69 -8 c-3
-9 -8 -14 -10 -11 -3 3 -2 9 2 15 9 16 15 13 8 -4z m-1760 -114 c22 -61 43
-108 47 -104 4 4 24 56 45 116 21 59 42 107 47 107 11 0 9 -5 -42 -149 -23
-64 -44 -107 -53 -109 -15 -3 -17 0 -67 143 -15 44 -31 88 -36 99 -5 13 -3 17
6 14 8 -2 32 -55 53 -117z m517 89 c0 -23 4 -30 20 -30 11 0 20 -4 20 -10 0
-5 -10 -10 -21 -10 -20 0 -21 -4 -17 -71 3 -55 8 -74 23 -85 10 -8 16 -16 13
-19 -11 -11 -40 8 -49 32 -12 33 -12 223 1 223 6 0 10 -13 10 -30z m515 16
c24 -11 33 -20 29 -30 -5 -14 -9 -14 -34 -1 -36 18 -61 19 -84 2 -28 -21 -9
-45 49 -62 87 -25 108 -74 54 -127 -29 -29 -33 -30 -90 -25 -68 6 -72 8 -64
29 5 13 12 14 40 5 50 -15 100 1 100 33 0 17 -8 28 -24 35 -68 28 -106 52
-109 68 -13 70 53 106 133 73z m105 -16 c0 -25 4 -30 25 -30 16 0 25 -6 25
-15 0 -9 -9 -15 -25 -15 -25 0 -26 -1 -23 -62 3 -54 6 -64 26 -73 12 -5 22
-13 22 -18 0 -17 -31 -18 -55 -3 -24 16 -25 20 -25 131 0 96 3 115 15 115 10
0 15 -10 15 -30z m482 -30 l3 -61 35 30 c19 17 44 30 55 31 16 0 12 -7 -20
-40 l-39 -40 42 -60 c40 -57 41 -60 20 -60 -16 0 -32 14 -53 45 -16 25 -33 45
-37 45 -5 0 -8 -20 -8 -45 0 -38 -3 -45 -20 -45 -19 0 -20 7 -20 130 0 122 1
130 20 130 16 0 19 -8 22 -60z m193 28 c1 -20 -2 -24 -11 -17 -8 7 -14 6 -17
-3 -3 -7 -6 2 -6 20 -1 27 3 33 17 30 11 -2 17 -13 17 -30z m-44 -35 c13 -16
12 -17 -3 -4 -17 13 -22 21 -14 21 2 0 10 -8 17 -17z m-1502 -19 c12 -15 21
-40 21 -55 0 -29 0 -29 -65 -29 -72 0 -83 -12 -44 -51 17 -17 30 -20 65 -16
24 2 44 1 44 -3 0 -22 -85 -27 -111 -7 -24 18 -39 52 -39 87 0 86 83 133 129
74z m191 16 c17 -11 10 -13 -40 -10 -47 2 -75 -28 -75 -80 0 -55 26 -80 82
-80 27 0 42 -4 38 -10 -9 -15 -78 -12 -102 5 -50 35 -50 135 0 170 24 17 74
20 97 5z m271 -19 c23 -23 29 -38 29 -71 0 -53 -42 -100 -90 -100 -48 0 -90
47 -90 100 0 53 42 100 90 100 22 0 41 -9 61 -29z m79 13 c0 -14 2 -14 22 0
24 17 38 20 38 9 0 -5 -14 -16 -30 -25 -29 -17 -30 -19 -30 -93 0 -43 -4 -75
-10 -75 -6 0 -10 40 -10 100 0 60 4 100 10 100 6 0 10 -7 10 -16z m545 -9 c20
-19 25 -34 25 -75 0 -63 -30 -100 -82 -100 -67 0 -107 62 -87 135 18 66 97 88
144 40z m184 16 c19 -12 3 -33 -20 -26 -30 10 -56 -3 -69 -35 -23 -55 18 -111
69 -95 23 7 39 -14 20 -26 -35 -22 -100 -1 -118 38 -23 51 -7 122 33 141 26
13 67 14 85 3z m5400 -94 c8 -26 17 -47 21 -47 4 0 13 21 21 47 8 25 20 48 27
51 8 2 4 -19 -12 -63 -36 -99 -36 -99 -72 0 -16 44 -20 65 -12 63 7 -3 19 -26
27 -51z m638 38 c2 -6 -9 -11 -23 -10 -38 0 -40 -20 -5 -35 69 -28 36 -101
-33 -74 -27 10 -18 22 15 20 43 -2 49 22 10 35 -34 12 -49 43 -30 65 13 16 60
15 66 -1z m333 -20 c0 -35 16 -47 26 -20 4 8 13 15 22 15 13 0 13 -3 -2 -19
-16 -18 -16 -21 -1 -50 9 -18 11 -31 5 -31 -6 0 -16 11 -22 25 -6 14 -15 25
-20 25 -4 0 -8 -11 -8 -25 0 -14 -4 -25 -10 -25 -6 0 -10 30 -10 70 0 40 4 70
10 70 6 0 10 -16 10 -35z m580 32 c0 -4 -34 -104 -45 -136 -3 -8 -8 -11 -11
-8 -8 7 38 147 48 147 4 0 8 -2 8 -3z m70 -57 c0 -33 4 -60 10 -60 6 0 10 -4
10 -10 0 -5 -13 -10 -30 -10 -16 0 -30 5 -30 10 0 6 5 10 10 10 6 0 10 20 10
45 0 38 -2 43 -17 38 -16 -6 -16 -4 1 15 29 34 36 27 36 -38z m130 55 c0 -6
-60 -127 -66 -134 -2 -2 -7 -2 -10 1 -3 3 6 29 20 57 14 28 26 53 26 56 0 3
-13 5 -30 5 -16 0 -30 5 -30 10 0 6 20 10 45 10 25 0 45 -2 45 -5z m60 -55 c0
-33 4 -60 10 -60 6 0 10 -4 10 -10 0 -5 -13 -10 -30 -10 -16 0 -30 5 -30 10 0
6 5 10 10 10 6 0 10 20 10 45 0 38 -2 43 -17 38 -16 -6 -16 -4 1 15 29 34 36
27 36 -38z m122 8 c2 -29 2 -61 0 -70 -5 -22 -22 -24 -22 -3 0 10 -10 15 -30
15 -16 0 -30 3 -30 6 0 16 56 104 67 104 6 0 13 -22 15 -52z m118 33 c-5 -11
-15 -23 -20 -26 -6 -4 -2 -14 11 -24 40 -32 1 -82 -51 -66 -31 10 -23 25 10
19 22 -5 31 -2 36 11 6 16 -3 28 -31 39 -6 2 -5 9 3 17 18 19 15 29 -8 29 -11
0 -20 5 -20 10 0 6 18 10 40 10 37 0 40 -2 30 -19z m120 9 c0 -5 -11 -10 -25
-10 -14 0 -29 -8 -36 -21 -9 -18 -8 -20 9 -15 12 4 28 -1 43 -13 21 -16 22
-22 11 -45 -21 -47 -92 -23 -92 31 0 27 17 64 34 75 16 11 56 10 56 -2z m98 2
c22 -14 27 -78 8 -107 -32 -49 -86 -21 -86 45 0 56 39 86 78 62z m124 -44 c2
-29 2 -61 0 -70 -5 -22 -22 -24 -22 -3 0 10 -10 15 -30 15 -16 0 -30 3 -30 6
0 16 56 104 67 104 6 0 13 -22 15 -52z m-2052 7 c9 -10 9 -15 1 -15 -15 0 -14
-57 2 -63 6 -2 9 -7 6 -11 -15 -17 -37 8 -41 47 -7 58 5 74 32 42z m360 0 c9
-10 9 -15 1 -15 -15 0 -14 -57 2 -63 6 -2 9 -7 6 -11 -15 -17 -37 8 -41 47 -7
58 5 74 32 42z m-532 -7 c23 -23 13 -38 -24 -38 -46 0 -41 -23 7 -30 27 -4 30
-7 16 -13 -28 -11 -44 -9 -61 9 -32 31 -14 84 29 84 12 0 26 -5 33 -12z m117
3 c3 -5 -9 -11 -27 -13 -28 -2 -33 -7 -33 -28 0 -21 6 -26 35 -30 27 -4 31 -7
17 -13 -28 -11 -44 -9 -61 9 -32 32 -8 84 39 84 13 0 26 -4 30 -9z m169 -7
c21 -20 20 -43 -1 -66 -20 -22 -46 -23 -67 -2 -31 30 -9 84 34 84 10 0 26 -7
34 -16z m86 6 c0 -4 -7 -10 -15 -14 -9 -3 -15 -19 -15 -41 0 -19 -4 -35 -10
-35 -5 0 -10 22 -10 49 0 45 2 49 25 49 14 0 25 -4 25 -8z m274 -6 c21 -20 20
-43 -1 -66 -20 -22 -46 -23 -67 -2 -31 30 -9 84 34 84 10 0 26 -7 34 -16z
m121 7 c3 -5 -9 -11 -27 -13 -28 -2 -33 -7 -33 -28 0 -21 5 -26 33 -28 36 -4
34 -22 -3 -22 -28 0 -55 24 -55 50 0 37 67 69 85 41z m250 0 c3 -5 -9 -11 -27
-13 -28 -2 -33 -7 -33 -28 0 -21 5 -26 33 -28 36 -4 34 -22 -3 -22 -28 0 -55
24 -55 50 0 37 67 69 85 41z m99 -7 c21 -20 20 -43 -1 -66 -20 -22 -46 -23
-67 -2 -31 30 -9 84 34 84 10 0 26 -7 34 -16z m113 4 c7 -5 14 -5 18 2 10 16
42 12 49 -6 10 -25 7 -84 -4 -84 -5 0 -10 18 -10 41 0 33 -3 40 -17 37 -13 -2
-19 -14 -21 -41 -4 -50 -22 -47 -22 4 0 36 -2 40 -22 37 -19 -2 -24 -10 -26
-40 -5 -55 -22 -46 -22 10 0 48 0 49 33 49 17 0 37 -4 44 -9z m-327 -78 c0 -5
-4 -10 -10 -10 -5 0 -10 5 -10 10 0 6 5 10 10 10 6 0 10 -4 10 -10z"/>
<path d="M2150 500 c0 -5 5 -10 10 -10 6 0 10 5 10 10 0 6 -4 10 -10 10 -5 0
-10 -4 -10 -10z"/>
<path d="M536 418 c-28 -39 -21 -48 39 -48 59 0 67 9 45 51 -15 27 -64 25 -84
-3z"/>
<path d="M986 424 c-50 -50 -21 -144 44 -144 48 0 80 50 66 104 -13 53 -75 75
-110 40z"/>
<path d="M1616 408 c-32 -46 -8 -118 39 -118 28 0 55 34 55 70 0 36 -27 70
-55 70 -13 0 -31 -10 -39 -22z"/>
<path d="M9187 350 c-18 -29 -18 -30 2 -30 17 0 21 6 21 30 0 17 -1 30 -3 30
-1 0 -11 -13 -20 -30z"/>
<path d="M9404 325 c-4 -9 -2 -21 4 -27 16 -16 47 -5 47 17 0 26 -42 34 -51
10z"/>
<path d="M9514 365 c-9 -38 3 -75 26 -75 23 0 35 37 26 75 -4 16 -13 25 -26
25 -13 0 -22 -9 -26 -25z"/>
<path d="M9647 350 c-18 -29 -18 -30 2 -30 17 0 21 6 21 30 0 17 -1 30 -3 30
-1 0 -11 -13 -20 -30z"/>
<path d="M7415 340 c-4 -6 5 -10 19 -10 14 0 26 5 26 10 0 6 -9 10 -19 10 -11
0 -23 -4 -26 -10z"/>
<path d="M7694 336 c-10 -26 4 -48 28 -44 17 2 23 10 23 28 0 18 -6 26 -23 28
-13 2 -25 -3 -28 -12z"/>
<path d="M8054 336 c-10 -26 4 -48 28 -44 17 2 23 10 23 28 0 18 -6 26 -23 28
-13 2 -25 -3 -28 -12z"/>
<path d="M8524 336 c-10 -26 4 -48 28 -44 17 2 23 10 23 28 0 18 -6 26 -23 28
-13 2 -25 -3 -28 -12z"/>
</g>
</svg>
