<?xml version="1.0" standalone="no"?>
<!DOCTYPE svg PUBLIC "-//W3C//DTD SVG 20010904//EN"
 "http://www.w3.org/TR/2001/REC-SVG-20010904/DTD/svg10.dtd">
<svg version="1.0" xmlns="http://www.w3.org/2000/svg"
 width="900.000000pt" height="527.000000pt" viewBox="0 0 900.000000 527.000000"
 preserveAspectRatio="xMidYMid meet">

<g transform="translate(0.000000,527.000000) scale(0.100000,-0.100000)"
fill="#000000" stroke="none">
<path d="M4375 5260 c28 -12 37 -12 30 0 -3 6 -16 10 -28 9 -21 0 -21 -1 -2
-9z"/>
<path d="M4702 5236 c16 -8 34 -18 40 -21 7 -4 2 3 -12 14 -14 11 -32 21 -40
21 -8 0 -3 -7 12 -14z"/>
<path d="M4168 5233 c6 -2 18 -2 25 0 6 3 1 5 -13 5 -14 0 -19 -2 -12 -5z"/>
<path d="M4214 5218 c-19 -23 -19 -23 1 -6 11 9 31 18 45 21 l25 4 -26 2 c-16
0 -33 -8 -45 -21z"/>
<path d="M4816 5218 l6 -28 -86 4 c-97 4 -106 0 -26 -11 59 -9 76 -27 34 -37
-14 -4 -24 -9 -22 -12 3 -2 17 0 32 5 42 17 71 -1 85 -51 15 -52 27 -436 15
-448 -5 -5 -60 1 -129 15 -192 39 -396 72 -593 97 -149 18 -182 25 -180 38 4
18 220 119 485 226 106 43 191 79 189 81 -8 8 -470 -184 -596 -247 -76 -38
-100 -45 -100 -28 0 17 93 176 141 241 19 25 40 46 48 47 8 0 11 3 8 7 -4 3 0
15 10 25 12 13 33 18 82 20 l66 2 -58 3 c-53 4 -57 6 -46 21 8 9 0 6 -16 -8
-16 -14 -36 -33 -43 -42 -7 -10 -20 -18 -28 -18 -8 0 -13 -4 -10 -9 3 -5 -9
-28 -28 -52 -18 -24 -59 -88 -91 -142 -38 -64 -61 -94 -66 -85 -13 20 -20 150
-12 198 7 35 13 46 33 51 22 6 22 7 5 10 -27 3 -29 3 -115 -21 -68 -18 -55
-20 33 -4 l34 6 -5 -78 c-2 -44 0 -102 5 -129 9 -46 7 -52 -11 -66 -18 -14
-37 -15 -121 -8 -55 4 -137 8 -182 9 -66 0 -83 3 -83 14 0 8 29 46 65 83 36
37 65 70 64 72 -3 10 86 71 105 72 18 0 19 1 3 7 -14 6 -7 15 39 45 31 20 52
37 47 37 -6 0 -43 -24 -84 -53 -41 -30 -81 -52 -89 -49 -11 2 -12 1 -3 -5 9
-6 -19 -40 -95 -115 l-107 -106 -207 -4 c-114 -3 -205 -1 -202 4 3 4 12 8 20
8 8 0 14 5 14 11 0 5 5 7 12 3 7 -4 8 -3 4 4 -9 15 -78 -26 -69 -41 3 -7 3 -9
-2 -5 -11 11 -56 -16 -90 -53 l-30 -33 27 17 c34 21 39 21 31 2 -3 -9 2 -36
12 -60 18 -48 78 -108 177 -178 32 -22 56 -42 55 -44 -2 -2 -55 4 -117 12 -63
8 -129 15 -147 15 -41 0 -43 14 -3 30 17 7 33 17 37 23 3 5 -17 -2 -44 -18
l-51 -27 -111 12 -112 13 18 21 c10 11 1 5 -20 -13 -20 -19 -37 -40 -37 -45 0
-6 7 -3 14 7 7 9 21 17 31 17 12 0 15 -5 11 -17 -6 -16 -6 -16 8 -3 14 13 29
14 96 6 l80 -9 -82 -49 c-46 -28 -87 -55 -93 -60 -13 -14 -10 -13 101 54 l90
55 145 -18 c79 -10 149 -18 156 -19 6 0 9 -8 6 -18 -2 -11 -56 -43 -142 -86
-170 -83 -357 -193 -476 -279 -82 -59 -91 -63 -99 -46 -5 11 -4 43 3 81 6 35
12 73 11 86 0 27 17 62 30 62 4 0 19 9 32 20 12 11 34 29 48 40 l25 21 -26
-15 c-14 -9 -27 -15 -30 -14 -2 2 -3 1 -2 -1 3 -4 -43 -41 -51 -41 -3 0 -3 8
0 18 3 9 -2 4 -12 -13 -9 -16 -24 -39 -33 -49 -11 -13 -12 -17 -2 -11 20 11 7
-63 -18 -107 -10 -18 -22 -44 -25 -58 -3 -14 2 -8 14 15 l19 40 -2 -59 c-2
-53 -5 -61 -35 -84 -28 -22 -32 -22 -27 -6 4 10 -1 6 -10 -11 -10 -16 -58 -73
-109 -125 l-91 -95 88 85 c65 63 87 80 87 65 0 -15 5 -11 17 13 8 18 32 46 52
64 l36 31 8 -34 c18 -71 59 -179 67 -174 4 3 -5 38 -20 77 -16 40 -31 89 -35
109 l-7 35 124 86 c68 47 168 111 222 143 89 51 350 185 360 185 2 0 6 -9 9
-19 3 -14 -25 -62 -94 -158 -132 -186 -214 -324 -315 -533 -124 -256 -127
-263 -146 -274 -12 -7 -55 5 -175 51 l-158 60 2 59 1 59 -23 -80 c-13 -44 -45
-131 -70 -194 -25 -62 -44 -115 -42 -117 2 -2 23 45 46 105 23 61 50 120 59
132 l18 21 115 -45 c62 -24 137 -53 164 -63 28 -10 53 -22 56 -26 3 -5 -20
-91 -51 -191 -32 -100 -72 -255 -90 -344 -36 -177 -47 -196 -86 -148 -45 56
-166 274 -193 348 -10 25 -9 27 14 27 13 0 27 5 31 12 5 8 -3 10 -28 5 -34 -5
-35 -4 -53 44 -10 30 -15 63 -12 82 3 18 3 26 0 20 -2 -7 -8 -13 -12 -13 -11
0 -32 100 -41 196 -7 77 -7 77 -9 21 0 -32 7 -93 16 -135 19 -85 19 -136 3
-197 -11 -40 -13 -41 -83 -59 -101 -26 -147 -51 -146 -79 1 -15 3 -17 6 -5 4
18 105 62 167 74 l38 7 -5 -34 -6 -34 11 37 c9 31 17 37 46 43 41 8 41 8 77
-75 26 -60 116 -217 170 -298 37 -55 26 -68 -63 -76 -80 -7 -227 -29 -274 -41
-27 -7 -28 -6 -29 31 l-1 39 -8 -38 c-8 -43 -8 -42 -37 -51 -21 -7 -22 -3 -26
51 l-3 58 -2 -60 c-3 -55 -5 -62 -34 -80 -17 -11 -34 -26 -36 -34 -3 -8 9 -4
28 10 25 18 34 21 38 11 3 -10 8 -8 19 7 17 25 58 29 49 5 -3 -9 -6 -40 -6
-71 0 -46 -3 -54 -17 -51 -12 2 -20 16 -24 38 -6 32 -6 32 -8 7 -1 -25 -4 -27
-23 -21 -13 3 -31 13 -40 22 -10 8 -18 10 -18 4 0 -11 44 -45 72 -55 9 -3 18
-16 21 -29 4 -23 4 -23 6 -1 1 16 6 21 16 17 11 -5 15 -25 17 -83 l2 -76 3 74
4 73 32 -6 c77 -17 100 -19 94 -9 -4 6 -34 16 -68 22 l-61 12 4 74 c2 41 6 76
9 80 16 15 379 70 379 57 0 -3 -35 -41 -78 -86 -148 -155 -217 -258 -273 -411
-10 -28 -11 -29 -24 -11 -12 16 -13 0 -8 -120 6 -152 13 -189 13 -74 0 63 2
71 15 60 13 -10 15 -9 15 8 0 18 10 14 88 -35 48 -30 123 -73 167 -95 44 -22
85 -47 91 -56 6 -8 18 -56 28 -106 17 -89 104 -372 112 -364 2 3 -14 58 -36
124 -43 127 -88 320 -77 331 4 3 39 -9 79 -27 188 -86 237 -112 243 -128 3 -9
15 -28 26 -42 l21 -25 -21 38 c-12 21 -21 47 -21 57 0 16 183 189 225 213 27
15 64 -15 214 -171 191 -201 190 -197 46 -256 -55 -23 -136 -61 -180 -85 -66
-35 -83 -41 -98 -31 -16 10 -18 9 -13 -8 5 -14 -11 -32 -73 -80 -43 -34 -96
-83 -117 -109 -21 -26 -41 -52 -45 -57 -4 -4 -21 2 -37 14 -21 15 -46 56 -78
126 -26 57 -49 102 -52 100 -2 -3 17 -48 42 -102 25 -53 44 -100 41 -102 -7
-7 -73 66 -157 172 -92 116 -119 143 -50 51 33 -44 91 -116 130 -160 103 -116
101 -127 -14 -65 -156 83 -220 128 -290 203 -37 40 -62 63 -56 52 6 -11 22
-32 37 -48 14 -15 23 -27 19 -27 -3 0 -1 -7 6 -15 6 -8 17 -13 23 -12 7 1 12
-7 12 -17 0 -12 8 -20 22 -22 12 -2 49 -21 83 -43 34 -22 106 -63 161 -91 55
-28 97 -55 94 -59 -2 -5 -21 -12 -42 -16 -41 -7 -108 -39 -118 -55 -13 -21 7
-32 21 -11 15 20 110 61 144 61 10 0 32 -13 48 -30 17 -16 40 -31 51 -33 11
-2 30 -12 43 -22 22 -19 22 -18 -1 8 -38 42 -19 42 56 -1 82 -47 153 -84 153
-78 0 2 -48 30 -107 62 -105 57 -173 111 -173 139 0 40 215 231 248 220 9 -3
46 -44 82 -91 36 -47 74 -93 85 -102 10 -9 4 3 -15 27 -19 25 -56 72 -82 105
-26 34 -48 69 -48 78 0 12 39 36 133 81 72 36 154 73 181 83 l49 18 22 -26
c16 -19 24 -45 30 -95 8 -83 65 -309 95 -377 11 -28 18 -57 14 -65 -4 -9 -6
-22 -5 -30 1 -8 -3 -12 -11 -9 -7 3 -55 17 -107 32 -52 15 -104 34 -115 42
-33 23 -39 16 -18 -18 11 -18 22 -45 26 -61 3 -15 23 -61 42 -103 20 -41 34
-77 31 -80 -3 -3 -82 33 -176 80 -94 48 -171 84 -171 81 0 -3 85 -47 188 -99
162 -81 192 -100 214 -133 14 -21 59 -73 99 -114 41 -41 51 -50 23 -20 -72 80
-124 143 -124 153 0 5 18 -1 40 -12 56 -28 64 -24 10 5 -69 37 -83 53 -124
141 -43 96 -58 161 -34 151 9 -3 60 -18 115 -32 100 -27 130 -46 179 -110 15
-20 15 -19 5 2 -10 21 -6 53 7 53 4 0 85 -25 182 -56 116 -37 181 -62 193 -76
18 -21 17 -22 -26 -67 -45 -47 -69 -86 -91 -149 l-12 -35 -40 34 c-21 18 -31
24 -21 13 22 -26 22 -35 0 -27 -10 3 7 -11 37 -32 30 -21 66 -47 80 -59 16
-14 20 -15 11 -3 -10 13 -10 17 -1 17 7 0 2 9 -11 19 l-24 19 40 11 c22 5 78
17 125 25 84 15 85 15 100 -6 8 -12 23 -31 33 -42 14 -16 13 -13 -2 11 -12 17
-21 36 -21 41 0 12 41 19 162 28 84 6 88 5 96 -16 4 -12 11 -21 15 -21 4 1 11
1 15 1 5 0 19 -22 32 -50 13 -27 25 -48 27 -46 3 2 -5 23 -17 46 -12 23 -19
44 -17 46 7 8 85 -99 106 -146 11 -25 21 -38 21 -29 0 23 -66 128 -107 170
-20 21 -33 44 -31 55 4 24 115 98 259 173 107 56 119 60 119 42 0 -12 5 -21
10 -21 7 0 9 -15 6 -38 l-6 -37 11 34 c6 19 19 45 29 58 l18 23 68 -49 c86
-61 149 -125 141 -144 -3 -9 1 -14 11 -13 24 1 72 -97 72 -146 0 -36 -23 -108
-34 -108 -3 0 -44 13 -93 29 -48 17 -107 33 -131 37 -42 7 -42 7 -25 27 l18
21 -30 -21 c-16 -11 -47 -26 -67 -32 -21 -7 -38 -15 -38 -18 0 -3 6 -3 13 0
61 23 62 19 12 -34 l-50 -54 58 55 57 55 79 -17 c43 -9 101 -26 127 -39 l49
-23 -39 -4 c-29 -2 -36 -6 -25 -13 10 -6 10 -9 2 -9 -7 0 -13 -4 -13 -9 0 -11
50 -5 63 8 18 18 45 12 66 -15 28 -36 27 -40 -16 -53 l-38 -10 39 5 c38 5 38
5 23 -17 -9 -12 -29 -30 -44 -40 -15 -11 -23 -19 -16 -19 7 0 31 19 55 42 24
24 57 48 73 55 l30 13 -37 -5 c-30 -5 -38 -3 -38 10 0 8 -9 23 -20 32 -27 23
-26 27 15 42 19 7 35 18 35 26 0 11 -6 11 -31 -2 -36 -18 -45 -13 -29 18 21
38 8 141 -23 187 -15 23 -24 47 -21 54 3 7 58 58 121 113 64 55 228 211 366
348 179 176 257 247 273 247 l23 0 -19 -68 c-57 -206 -150 -393 -268 -542 -27
-34 -29 -39 -9 -21 33 30 111 143 160 231 44 79 97 217 128 328 12 45 26 82
31 82 13 0 9 -232 -6 -312 -21 -109 -83 -254 -130 -308 -23 -25 -31 -36 -18
-26 12 11 22 16 22 12 0 -28 -162 -216 -186 -216 -8 0 -14 -4 -14 -10 0 -5 2
-10 5 -10 11 0 70 40 69 47 0 5 19 31 43 58 24 28 61 75 81 105 26 37 76 84
153 143 63 48 123 97 134 109 11 12 -2 3 -30 -19 -81 -65 -201 -153 -209 -153
-3 0 2 17 12 37 71 142 108 315 98 463 -8 120 -1 133 51 97 61 -43 165 -147
207 -210 l40 -57 -35 -37 c-30 -33 -31 -34 -5 -15 16 12 34 22 41 22 15 0 35
-73 35 -125 0 -87 -23 -134 -86 -171 -17 -10 -17 -11 1 -11 20 0 59 25 105 68
13 13 29 23 35 21 5 -2 6 0 2 4 -4 4 25 42 65 83 l73 76 -82 -79 c-45 -44 -88
-81 -96 -82 -11 -1 -13 14 -10 75 3 50 -1 93 -11 125 l-15 48 99 102 c67 68
100 95 100 83 0 -10 -9 -55 -21 -99 -11 -44 -18 -82 -16 -84 5 -5 21 52 42
148 14 66 25 87 68 142 29 36 57 64 62 62 21 -5 48 -111 49 -188 0 -65 2 -73
11 -50 15 35 1 141 -26 210 l-21 53 31 45 c18 24 30 44 27 44 -2 0 -18 -18
-34 -41 -29 -39 -31 -40 -42 -19 -10 19 -3 31 55 108 57 75 99 112 111 99 2
-2 -17 -33 -42 -70 -24 -37 -42 -67 -40 -67 3 0 19 21 37 48 49 72 79 95 155
119 95 31 89 34 66 -37 -11 -36 29 32 48 80 24 60 21 95 -3 38 -14 -34 -21
-38 -94 -60 -43 -13 -79 -21 -81 -17 -2 4 18 44 43 89 45 79 115 226 115 239
-1 3 -36 -64 -80 -149 -79 -156 -109 -200 -134 -200 -9 0 4 28 34 73 56 85
124 207 116 207 -3 0 -15 -19 -27 -42 -12 -24 -51 -89 -87 -144 l-66 -101 -90
-18 c-50 -10 -101 -20 -113 -23 -18 -3 -23 0 -23 15 0 10 -4 23 -10 29 -6 6
-6 22 0 44 26 87 53 227 70 358 10 79 24 150 31 158 13 16 90 15 337 -2 96 -7
97 -9 57 -100 -14 -32 -24 -59 -21 -61 2 -2 9 10 16 27 10 23 15 28 22 18 5
-8 7 -2 3 17 -3 20 -3 24 3 12 4 -10 12 -18 17 -17 6 1 13 -9 17 -22 5 -19 6
-17 8 12 1 19 5 44 9 55 8 19 8 19 21 -4 7 -13 14 -44 17 -70 5 -59 13 -66 13
-12 0 23 -9 60 -20 83 -17 36 -18 50 -10 107 5 36 11 89 13 118 4 51 4 51 -14
30 l-18 -22 -1 25 c-1 14 -1 75 -1 135 0 61 -4 133 -8 160 -5 31 -7 -10 -4
-110 l4 -160 -25 45 c-14 25 -39 88 -56 140 -66 199 -225 490 -369 675 -26 33
-51 66 -55 73 -5 9 9 31 41 65 27 29 54 60 59 70 9 16 18 17 97 8 48 -6 94
-16 101 -23 7 -8 23 -44 35 -81 13 -38 25 -66 27 -64 2 2 -3 23 -11 47 -8 23
-15 48 -15 54 1 33 142 -190 157 -249 l11 -40 1 35 c1 19 10 60 21 90 11 30
19 64 19 75 0 11 -9 -8 -20 -43 -22 -68 -45 -80 -42 -21 1 29 1 30 -5 8 -6
-23 -13 -16 -79 84 l-71 109 42 -6 c23 -4 64 -14 91 -24 40 -14 51 -24 61 -52
7 -19 12 -28 12 -20 0 20 -22 80 -28 78 -3 -1 -23 5 -45 12 -22 7 -64 18 -94
25 -54 10 -55 11 -93 80 -36 67 -55 86 -22 24 23 -46 11 -45 -26 1 -25 32 -31
46 -25 68 l7 27 13 -25 c8 -14 14 -21 15 -17 0 5 -5 17 -10 28 -8 14 -6 41 5
97 15 71 14 152 -1 217 -5 17 -2 16 16 -5 15 -19 19 -20 13 -6 -5 14 -3 17 6
11 10 -6 11 -3 1 14 -6 12 -15 19 -20 16 -12 -7 -33 32 -25 45 4 6 1 9 -7 8
-7 -2 -12 5 -12 15 1 10 -1 16 -4 13 -3 -4 -17 1 -31 10 l-26 17 21 -24 c44
-52 70 -110 42 -93 -7 4 -5 -2 6 -14 28 -32 27 -174 -3 -269 -12 -40 -25 -73
-28 -73 -3 0 -62 56 -132 124 -69 69 -165 157 -213 197 -82 67 -89 75 -109
138 -58 174 -146 352 -250 508 -37 54 -45 72 -34 77 8 3 17 0 21 -6 4 -7 3 -8
-4 -4 -25 15 -8 -4 110 -119 l123 -120 -113 115 c-102 105 -125 138 -86 123 8
-3 12 -9 9 -13 -3 -5 0 -12 6 -16 8 -5 9 -3 4 6 -5 8 -3 11 6 8 8 -3 13 -10
12 -16 -1 -5 31 -35 72 -66 41 -31 75 -54 75 -52 0 3 -25 24 -55 47 -31 23
-53 44 -51 47 3 3 12 -1 20 -7 11 -9 16 -9 22 0 4 7 3 9 -4 5 -5 -3 -12 -2
-14 2 -1 5 -40 30 -85 56 -83 48 -123 85 -123 115 0 9 -14 36 -30 61 -16 25
-30 49 -30 54 0 13 -53 56 -62 50 -4 -3 7 -20 26 -38 22 -20 37 -46 41 -69 9
-47 1 -56 -27 -31 -12 10 -19 14 -15 9 3 -6 2 -17 -2 -24 -7 -10 -13 -11 -31
-1 -12 7 -20 8 -16 2 3 -5 19 -15 36 -22 16 -7 30 -18 30 -25 0 -24 -219 -215
-246 -215 -6 0 -16 16 -23 36 -7 19 -15 34 -17 31 -2 -2 3 -21 12 -42 13 -31
13 -40 2 -51 -11 -11 -20 -11 -49 -1 -25 9 -58 40 -119 112 -46 55 -122 142
-169 194 -118 129 -371 357 -371 334 0 -4 16 -18 34 -31 141 -96 588 -577 573
-616 -5 -12 -24 -9 -104 15 -54 17 -182 52 -285 78 -103 27 -194 55 -202 64
-13 12 -17 48 -21 179 -3 142 -14 241 -31 299 -3 13 5 18 33 24 32 6 35 9 18
15 -30 13 0 12 50 -1 29 -7 54 -8 72 -2 23 8 14 11 -59 16 -107 9 -116 12
-133 51 -13 29 -14 29 -9 4z m-1326 -371 c0 -2 -10 -12 -22 -23 l-23 -19 19
23 c18 21 26 27 26 19z m2436 -82 c7 -27 6 -29 -9 -16 -10 7 -17 25 -17 39 0
33 16 18 26 -23z m-2500 14 c3 -6 1 -16 -6 -22 -10 -10 -12 -8 -6 7 10 28 -14
5 -38 -36 -17 -28 -17 -31 -3 -19 25 20 22 12 -30 -76 -27 -44 -56 -95 -65
-112 -10 -17 -25 -34 -35 -38 -10 -3 -25 -12 -34 -20 -13 -11 -24 -7 -75 28
-85 60 -161 137 -179 182 -9 22 -14 41 -12 43 2 3 37 0 78 -6 110 -16 278 -27
290 -19 6 3 -40 9 -103 13 -132 8 -239 23 -252 36 -13 13 32 32 94 40 92 12
368 11 376 -1z m392 -8 c23 -6 12 -14 -104 -75 -71 -37 -187 -101 -259 -142
-95 -53 -136 -72 -152 -68 -13 4 -23 9 -23 13 0 3 27 52 60 109 32 57 57 109
54 117 -3 7 0 16 7 21 9 5 10 2 6 -9 -11 -28 0 -19 24 19 l22 36 169 -7 c93
-4 181 -10 196 -14z m432 -47 c220 -30 590 -100 603 -113 6 -6 7 -25 1 -53
l-9 -43 -395 -1 c-414 -1 -678 -16 -958 -54 -171 -24 -172 -24 -172 -7 0 12
195 126 412 241 90 48 110 55 126 45 15 -9 25 -8 48 4 35 19 95 16 344 -19z
m1651 -30 c12 -15 9 -21 -26 -51 -22 -19 -71 -51 -109 -70 l-68 -34 88 85 c49
47 92 85 95 86 4 0 13 -7 20 -16z m45 -56 c36 -70 76 -199 94 -306 11 -63 20
-121 20 -129 0 -9 -22 2 -62 31 -35 25 -131 92 -215 148 -84 57 -152 106 -153
109 0 4 35 21 78 38 84 34 200 105 209 127 7 20 10 18 29 -18z m86 -82 c70
-106 150 -262 201 -392 63 -160 65 -158 -54 -67 l-103 80 -13 89 c-19 136 -39
214 -78 305 -19 46 -35 85 -35 87 0 14 31 -24 82 -102z m-1039 29 c165 -42
437 -118 433 -122 -2 -2 -66 3 -142 11 -77 8 -184 17 -239 21 -55 3 -117 8
-137 11 -37 6 -38 7 -38 48 0 38 6 56 17 56 3 0 50 -11 106 -25z m1122 15 c3
-5 2 -10 -4 -10 -5 0 -13 5 -16 10 -3 6 -2 10 4 10 5 0 13 -4 16 -10z m-1283
-113 c15 -12 16 -25 2 -168 -17 -190 -19 -199 -44 -199 -10 0 -23 -7 -27 -15
-7 -12 -23 -10 -108 16 -314 95 -816 208 -1173 265 -95 15 -169 31 -165 34 15
13 488 64 673 73 36 2 236 4 445 5 296 1 384 -1 397 -11z m319 -12 c215 -20
322 -35 332 -45 5 -4 -132 -80 -304 -168 -257 -132 -316 -159 -332 -151 -15 8
-18 18 -13 42 3 18 10 95 17 172 9 106 16 143 28 152 21 16 76 16 272 -2z
m660 -123 c101 -70 199 -138 217 -152 l32 -24 0 -113 c0 -62 -4 -113 -9 -113
-5 0 -55 50 -112 111 -57 61 -158 162 -224 224 -67 61 -119 117 -117 123 2 6
-1 19 -7 30 -11 20 2 42 25 42 6 0 94 -57 195 -128z m-293 46 c6 -6 25 -11 43
-10 28 1 54 -23 248 -216 120 -119 225 -229 235 -244 15 -24 16 -37 6 -130 -6
-56 -15 -107 -20 -111 -4 -5 -93 25 -196 66 -104 41 -256 98 -339 125 -140 47
-499 152 -572 167 -18 4 -34 11 -34 16 -1 5 -2 14 -3 20 -1 9 587 323 615 328
3 1 10 -4 17 -11z m-2003 -32 c313 -49 777 -154 1108 -251 174 -52 175 -49
-52 -216 -96 -70 -222 -165 -280 -211 -105 -83 -106 -83 -166 -84 l-60 0 -200
190 c-110 105 -287 277 -394 383 -168 167 -192 195 -181 208 9 10 22 14 39 11
14 -3 98 -17 186 -30z m135 -392 c329 -312 412 -396 401 -407 -6 -6 -11 -20
-11 -32 0 -16 -22 -29 -118 -69 -64 -28 -223 -103 -353 -167 l-237 -118 -35
17 c-41 20 -41 18 -61 192 -24 201 -38 485 -31 620 9 166 32 332 48 342 8 5
54 -36 137 -121 69 -71 186 -187 260 -257z m-434 314 c-39 -270 -33 -658 15
-996 12 -79 11 -83 -10 -105 l-21 -24 -253 88 c-330 114 -307 104 -307 133 0
51 154 371 269 561 41 66 116 179 167 252 80 112 99 133 120 133 25 0 26 -2
20 -42z m2972 -208 c94 -75 103 -85 117 -133 46 -162 88 -394 73 -403 -12 -7
-11 -8 -61 63 -23 33 -82 110 -132 172 -49 62 -90 118 -90 124 -1 7 -4 19 -8
27 -8 18 -14 230 -7 230 3 0 51 -36 108 -80z m-1153 -80 c166 -44 386 -112
540 -166 176 -62 427 -163 443 -179 17 -15 0 -112 -64 -369 -24 -98 -44 -179
-44 -180 0 0 -15 -2 -32 -2 -18 -1 -41 -3 -50 -5 -11 -3 -39 23 -83 76 -196
236 -444 485 -727 729 -131 112 -160 144 -120 132 9 -2 71 -19 137 -36z m-245
6 c0 0 -33 -113 -73 -250 -66 -223 -76 -250 -98 -258 -13 -5 -34 -18 -45 -29
-21 -20 -21 -20 -120 5 -55 13 -136 32 -181 41 -67 14 -82 21 -87 39 -8 26 4
37 249 220 298 223 328 244 342 239 7 -3 13 -6 13 -7z m227 -123 c307 -263
803 -785 787 -827 -3 -9 -7 -16 -9 -16 -1 0 -56 22 -121 49 -252 104 -778 280
-941 316 -25 5 -33 12 -33 28 0 11 -9 30 -20 42 l-21 22 73 251 c69 236 74
251 98 255 14 2 28 5 32 6 4 0 74 -56 155 -126z m1438 -25 c61 -53 147 -134
192 -180 l83 -83 -33 -55 -33 -55 -105 -3 -104 -2 -27 33 c-21 27 -31 59 -48
153 -18 102 -46 229 -67 299 -7 24 -17 31 142 -107z m-222 -161 c103 -133 124
-164 115 -172 -8 -9 -273 125 -285 144 -7 11 -7 51 0 120 l11 104 33 -39 c19
-21 75 -92 126 -157z m-13 -133 c105 -54 129 -71 135 -92 7 -30 5 -32 -253
-260 -143 -125 -157 -136 -171 -128 -5 3 11 83 34 178 24 95 51 214 60 263 17
87 25 105 54 105 7 0 71 -30 141 -66z m603 -57 c6 3 7 1 3 -6 -4 -6 -2 -19 5
-27 11 -13 3 -14 -67 -8 -43 4 -80 8 -82 9 -2 2 11 26 28 53 l31 51 36 -39
c19 -22 40 -37 46 -33z m-2449 -34 c168 -37 169 -37 182 -69 8 -18 20 -37 29
-41 12 -7 1 -57 -71 -313 -72 -258 -190 -716 -221 -854 -4 -22 -15 -40 -23
-42 -8 -1 -22 -5 -31 -8 -11 -5 -29 8 -59 41 -24 26 -136 146 -249 266 -113
120 -210 231 -214 246 -8 24 4 55 77 207 48 98 133 266 189 371 100 190 102
193 135 193 20 0 39 8 49 20 10 11 22 20 28 20 5 0 86 -16 179 -37z m-309 17
c4 -6 -31 -79 -76 -163 -85 -156 -230 -443 -273 -540 -13 -30 -28 -57 -33 -60
-6 -4 -88 76 -185 176 -171 178 -175 183 -170 220 4 36 7 38 131 104 129 69
566 271 588 272 6 1 15 -4 18 -9z m2574 -35 c2 -2 -21 -31 -50 -65 l-54 -61
-28 33 c-81 96 -78 104 39 99 49 -1 91 -5 93 -6z m-241 -45 c21 -17 40 -60 55
-122 6 -23 1 -31 -44 -67 l-51 -40 24 -23 c13 -13 50 -46 81 -75 31 -29 57
-56 57 -60 0 -4 11 -82 24 -173 13 -91 23 -166 22 -168 -2 -1 -43 21 -91 49
-122 70 -188 103 -349 174 l-140 62 -14 49 -14 48 44 35 c69 57 300 265 332
300 35 36 34 36 64 11z m109 -68 c14 -20 14 -25 2 -37 -29 -28 -40 -21 -59 39
-11 33 -16 64 -13 69 5 9 35 -21 70 -71z m-1598 -7 c237 -69 500 -159 711
-244 l165 -66 0 -38 0 -38 -200 -105 c-272 -143 -568 -305 -697 -380 -128 -74
-133 -73 -142 36 -11 119 -55 510 -77 683 l-21 158 24 24 c13 12 29 23 37 24
8 1 98 -24 200 -54z m-249 -231 c55 -438 78 -685 67 -714 -6 -17 -36 -42 -81
-70 -39 -24 -126 -79 -194 -123 -177 -114 -173 -124 -84 235 59 232 228 853
247 907 3 8 8 12 10 9 3 -3 18 -112 35 -244z m-1755 141 c154 -53 281 -98 284
-101 20 -20 -1 -39 -107 -95 -176 -94 -367 -216 -492 -315 -146 -116 -137
-111 -150 -98 -8 8 -3 54 20 165 47 232 141 539 165 539 1 0 127 -43 280 -95z
m3745 -85 c92 -128 194 -303 248 -425 42 -95 77 -184 68 -174 -2 2 -39 51 -82
109 -43 58 -142 168 -220 246 l-141 140 -24 97 -23 97 30 31 29 30 23 -28 c13
-15 54 -71 92 -123z m-163 -5 c22 -93 23 -93 -54 -26 l-51 45 36 33 c20 18 39
32 42 33 3 0 15 -38 27 -85z m-4359 -67 c13 -35 5 -48 -32 -48 -12 0 -16 5
-12 16 3 9 9 27 12 40 8 32 17 30 32 -8z m1082 -10 c0 -7 -28 -58 -62 -113
-132 -216 -275 -524 -343 -739 -17 -55 -35 -101 -40 -102 -11 -4 -159 183
-250 316 -55 79 -60 91 -57 130 4 40 9 46 106 122 133 106 318 227 491 322 77
42 143 76 148 76 4 0 7 -6 7 -12z m267 -181 c136 -139 171 -180 175 -206 4
-25 -8 -65 -42 -150 -26 -64 -64 -165 -85 -226 -38 -108 -50 -134 -60 -124
-18 18 -112 439 -155 693 -27 162 -29 186 -11 186 4 0 85 -78 178 -173z m-185
-12 c30 -178 81 -416 128 -597 22 -88 25 -108 14 -112 -8 -3 -17 -19 -20 -36
-6 -25 -20 -37 -103 -81 -53 -28 -144 -83 -203 -121 -72 -46 -113 -68 -125
-64 -26 8 -186 194 -178 206 4 6 1 17 -5 25 -35 42 164 517 343 818 111 186
112 185 149 -38z m3466 -86 c128 -142 239 -304 249 -362 3 -23 9 -35 11 -27 3
8 14 -6 27 -36 15 -35 20 -61 16 -89 l-5 -40 -13 50 -13 50 6 -50 c3 -27 6
-52 6 -55 0 -3 -3 -19 -7 -37 l-7 -32 -207 6 c-113 3 -210 10 -216 14 -12 11
-18 426 -6 433 11 7 123 -77 219 -162 75 -67 157 -165 187 -221 9 -18 19 -31
21 -28 9 9 -27 70 -82 138 -61 76 -173 180 -269 249 -37 27 -73 56 -80 67 -7
10 -23 83 -34 163 -12 80 -25 156 -28 170 -5 22 2 17 58 -31 35 -31 110 -107
167 -170z m-650 95 c162 -72 245 -113 358 -180 81 -47 92 -57 102 -92 17 -55
16 -414 0 -430 -13 -13 -180 -16 -212 -3 -11 4 -43 63 -86 159 -66 148 -151
302 -262 472 -46 72 -53 89 -45 108 6 12 12 22 14 22 2 0 61 -25 131 -56z
m-292 25 c3 -6 -41 -82 -99 -168 -126 -187 -486 -693 -501 -704 -15 -10 -55
-19 -226 -55 l-144 -29 -19 23 c-10 13 -24 24 -31 24 -8 0 -15 48 -23 166 -10
142 -9 169 3 181 8 8 14 18 14 22 0 10 274 166 560 319 492 262 452 243 466
221z m86 -48 c18 -18 93 -447 111 -643 5 -57 -17 -88 -63 -88 -45 0 -400 -47
-561 -74 -79 -14 -145 -23 -147 -21 -2 1 45 69 104 151 172 237 316 443 403
573 80 119 81 120 114 114 17 -3 35 -8 39 -12z m110 -85 c112 -173 247 -431
315 -603 4 -10 -11 -13 -53 -14 -33 0 -95 -4 -139 -9 -97 -10 -101 -7 -110 88
-14 154 -38 317 -71 472 -40 192 -37 170 -21 170 6 0 42 -47 79 -104z m-2171
-264 c213 -219 369 -392 369 -408 0 -12 -7 -14 -27 -10 -28 5 -277 20 -523 32
-117 6 -126 7 -143 30 -18 23 -18 27 -1 77 9 29 48 132 86 229 61 157 76 184
99 187 4 1 67 -61 140 -137z m-1449 -3 c2 -7 -2 -53 -9 -103 -19 -142 -25
-328 -15 -481 5 -77 7 -146 4 -153 -3 -9 -37 5 -111 44 -155 82 -238 139 -243
169 -14 70 127 307 266 449 83 85 101 97 108 75z m117 -96 c33 -49 103 -142
156 -208 108 -135 101 -109 71 -280 -8 -44 -18 -125 -22 -180 -4 -55 -12 -107
-18 -116 -10 -14 -27 -9 -153 48 -78 36 -144 72 -148 81 -12 31 -27 339 -20
427 17 253 30 315 66 315 5 0 35 -39 68 -87z m2235 -105 c5 -33 26 -276 26
-303 0 -8 -7 -15 -15 -15 -7 0 -18 -7 -23 -17 -9 -15 -23 -12 -148 25 -77 22
-161 47 -189 54 -28 8 -51 20 -53 28 -1 10 66 58 190 137 106 68 196 123 200
123 4 0 9 -15 12 -32z m1824 -164 c9 -17 -9 -195 -33 -314 -21 -104 -58 -251
-61 -247 -2 2 -8 48 -14 103 -11 100 -45 257 -80 372 -11 34 -17 69 -14 77 4
11 28 15 92 18 48 1 90 4 94 5 4 1 11 -5 16 -14z m-180 -166 c30 -105 58 -265
63 -359 2 -32 -3 -56 -17 -80 -18 -30 -44 -44 -214 -119 -106 -47 -197 -86
-201 -88 -5 -2 -9 8 -9 21 0 16 -7 28 -18 31 -17 6 -17 13 5 138 26 157 47
437 39 526 -7 79 -6 79 164 89 l125 8 16 -30 c9 -16 31 -78 47 -137z m-378
127 c17 -21 7 -386 -14 -520 -31 -193 -33 -200 -70 -220 l-33 -18 -56 46 c-68
55 -169 124 -290 196 -91 55 -427 221 -446 221 -19 0 -13 15 39 88 33 46 57
72 72 74 13 2 27 12 32 24 8 18 31 24 183 48 171 27 508 73 549 75 12 1 27 -6
34 -14z m-1955 -19 c139 -10 150 -12 153 -31 2 -16 -8 -27 -40 -45 -24 -13
-106 -62 -182 -109 -77 -46 -151 -85 -165 -86 -21 -2 -52 23 -153 124 -91 89
-128 132 -128 149 l0 23 183 -7 c100 -4 250 -12 332 -18z m-625 -21 c10 -12 8
-36 -9 -122 -26 -136 -38 -221 -46 -350 -7 -98 -8 -103 -30 -103 -16 0 -67 47
-179 164 -86 90 -156 170 -156 176 0 7 8 19 18 26 47 38 366 223 383 224 4 0
12 -7 19 -15z m-559 -110 c46 -53 85 -101 87 -108 1 -7 -21 -33 -50 -57 -29
-24 -84 -74 -122 -110 l-69 -65 6 100 c7 108 46 335 58 335 4 0 44 -43 90 -95z
m797 -38 l132 -132 -113 -81 c-61 -45 -151 -116 -199 -157 -64 -57 -89 -73
-96 -64 -15 18 3 223 34 387 31 167 32 170 49 164 8 -3 22 -1 32 5 10 6 20 11
23 11 3 0 65 -60 138 -133z m765 107 c237 -66 287 -84 287 -106 0 -12 7 -30
16 -39 14 -15 15 -25 7 -56 -6 -21 -38 -137 -71 -258 -63 -232 -132 -513 -132
-539 0 -9 -6 -16 -14 -16 -9 0 -16 17 -21 48 -12 86 -93 463 -151 703 -57 236
-57 236 -38 262 10 15 20 27 22 27 2 0 44 -12 95 -26z m-171 -21 c30 -9 256
-979 233 -1001 -4 -4 -16 4 -26 18 -174 241 -319 416 -521 632 -105 113 -114
137 -60 170 15 9 95 57 177 107 90 54 156 88 165 85 8 -4 23 -8 32 -11z m922
-15 c-4 -7 -27 -40 -51 -73 -59 -81 -73 -84 -195 -37 -54 20 -96 41 -95 47 4
10 278 72 325 74 16 1 21 -3 16 -11z m-152 -172 c14 -20 8 -33 -84 -167 l-92
-134 -23 155 c-12 85 -25 161 -28 169 -3 8 4 24 15 36 l21 22 92 -35 c51 -20
95 -40 99 -46z m-217 -127 c20 -125 24 -174 16 -182 -6 -6 -11 -20 -11 -30 0
-10 -28 -65 -63 -120 -80 -129 -201 -346 -195 -352 2 -2 41 61 85 140 89 156
192 320 198 314 5 -5 23 -225 27 -323 l3 -78 -143 -50 -143 -49 -19 23 c-11
13 -19 29 -20 37 0 20 92 390 140 561 65 233 80 280 89 280 5 0 21 -77 36
-171z m393 57 c227 -103 481 -254 625 -371 55 -44 56 -47 42 -69 -12 -18 -29
-25 -68 -30 -152 -20 -623 -128 -848 -194 l-66 -20 -14 182 c-20 265 -25 241
81 397 78 113 114 159 126 159 1 0 56 -24 122 -54z m-1251 -127 c162 -174 313
-351 409 -481 89 -121 111 -155 102 -164 -4 -3 -42 15 -86 40 -178 103 -513
250 -806 352 -168 59 -182 74 -120 129 54 49 194 160 279 221 60 43 73 49 88
39 10 -7 70 -68 134 -136z m2763 -53 c0 -2 -29 -41 -65 -87 -36 -45 -65 -86
-65 -91 0 -5 5 -18 11 -29 8 -17 2 -30 -43 -87 l-53 -66 -6 104 c-4 58 -9 121
-13 140 -10 55 9 69 126 95 57 12 104 23 106 24 1 0 2 -1 2 -3z m-297 -97 c5
-17 9 -19 25 -10 17 9 21 7 26 -12 11 -38 19 -213 12 -243 -5 -17 -49 -70
-108 -131 l-101 -103 -42 63 c-41 60 -135 156 -203 207 -28 21 -33 30 -27 50
5 22 34 38 203 112 108 47 200 87 203 87 4 1 9 -8 12 -20z m-2821 -128 c313
-113 509 -198 726 -314 72 -39 132 -76 132 -83 0 -8 -36 -14 -112 -18 -260
-16 -508 -47 -697 -87 -67 -15 -100 -18 -116 -11 -35 16 -117 290 -140 468 -6
45 -4 55 17 77 13 14 24 25 25 26 1 1 75 -25 165 -58z m2258 -78 c-1 -5 -87
-51 -191 -103 -247 -123 -480 -251 -648 -357 -74 -46 -138 -80 -142 -76 -5 5
-4 67 1 138 5 72 10 142 10 156 0 26 6 28 148 68 194 54 402 103 592 140 233
45 230 44 230 34z m0 -41 c0 -31 -574 -596 -723 -711 -15 -12 -24 -8 -75 41
-31 30 -83 72 -114 93 -32 21 -58 44 -58 51 0 14 196 139 381 242 143 80 570
302 582 302 4 0 7 -8 7 -18z m-984 -262 c-3 -44 -9 -116 -12 -160 -3 -44 -10
-80 -16 -80 -5 0 -35 20 -66 44 -31 24 -90 64 -130 90 -64 40 -72 50 -66 69 3
12 7 22 8 23 6 5 264 93 275 93 10 1 12 -15 7 -79z m-416 -48 c0 -4 -35 -25
-77 -46 -101 -49 -234 -128 -302 -178 -48 -37 -55 -39 -77 -27 -17 9 -28 9
-35 2 -15 -15 -393 109 -397 131 -2 9 -1 16 3 16 3 0 61 11 128 25 152 30 411
63 593 74 77 4 145 9 152 10 6 0 12 -3 12 -7z m19 -44 c10 -19 6 -45 -19 -150
-16 -70 -30 -135 -29 -145 0 -10 11 28 25 85 40 174 43 182 64 182 11 0 29 9
41 21 l21 21 113 -76 c121 -82 143 -102 129 -116 -5 -5 -57 -34 -116 -64 -59
-30 -145 -80 -190 -110 -63 -42 -85 -52 -96 -44 -9 8 -16 8 -23 1 -8 -8 -47 6
-132 47 -67 32 -149 70 -181 84 l-59 26 54 41 c30 22 79 55 109 74 63 38 262
145 271 145 3 0 11 -10 18 -22z m-327 -304 c45 -19 118 -54 162 -77 l78 -42
-133 -12 -134 -12 -23 27 c-22 25 -23 25 -12 3 14 -26 2 -40 -35 -41 -11 0
-60 -9 -110 -19 -49 -11 -91 -18 -93 -16 -1 1 7 28 18 59 13 33 41 77 69 108
43 47 48 50 68 37 12 -7 30 -30 39 -52 10 -21 22 -40 26 -44 5 -3 0 14 -12 37
-20 39 -20 80 0 80 4 0 46 -16 92 -36z"/>
<path d="M3150 4620 c-30 -16 -50 -29 -45 -29 6 0 35 13 65 29 30 16 51 29 45
29 -5 0 -35 -13 -65 -29z"/>
<path d="M7022 2370 c0 -14 2 -19 5 -12 2 6 2 18 0 25 -3 6 -5 1 -5 -13z"/>
<path d="M4422 530 c0 -19 2 -27 5 -17 2 9 2 25 0 35 -3 9 -5 1 -5 -18z"/>
<path d="M4408 5223 c12 -2 30 -2 40 0 9 3 -1 5 -23 4 -22 0 -30 -2 -17 -4z"/>
<path d="M4645 5220 c11 -5 27 -9 35 -9 9 0 8 4 -5 9 -11 5 -27 9 -35 9 -9 0
-8 -4 5 -9z"/>
<path d="M3982 5208 c-8 -10 -3 -13 18 -14 24 -1 26 1 15 12 -17 17 -20 17
-33 2z"/>
<path d="M4988 5213 c7 -3 16 -2 19 1 4 3 -2 6 -13 5 -11 0 -14 -3 -6 -6z"/>
<path d="M4593 5203 c9 -2 23 -2 30 0 6 3 -1 5 -18 5 -16 0 -22 -2 -12 -5z"/>
<path d="M3924 5155 c-15 -20 -25 -37 -23 -39 2 -2 16 14 31 35 35 49 28 51
-8 4z"/>
<path d="M4048 5183 c7 -3 16 -2 19 1 4 3 -2 6 -13 5 -11 0 -14 -3 -6 -6z"/>
<path d="M5038 5173 c7 -3 16 -2 19 1 4 3 -2 6 -13 5 -11 0 -14 -3 -6 -6z"/>
<path d="M4465 5160 l-50 -7 45 0 c25 0 59 3 75 7 26 7 27 8 5 7 -14 0 -47 -3
-75 -7z"/>
<path d="M4572 5165 c9 -9 142 -13 163 -4 12 4 -17 8 -74 8 -52 1 -92 -1 -89
-4z"/>
<path d="M5108 5163 c12 -2 32 -2 45 0 12 2 2 4 -23 4 -25 0 -35 -2 -22 -4z"/>
<path d="M5268 5153 c7 -3 16 -2 19 1 4 3 -2 6 -13 5 -11 0 -14 -3 -6 -6z"/>
<path d="M4338 5143 c12 -2 32 -2 45 0 12 2 2 4 -23 4 -25 0 -35 -2 -22 -4z"/>
<path d="M5093 5143 c9 -2 23 -2 30 0 6 3 -1 5 -18 5 -16 0 -22 -2 -12 -5z"/>
<path d="M4238 5133 c12 -2 30 -2 40 0 9 3 -1 5 -23 4 -22 0 -30 -2 -17 -4z"/>
<path d="M5033 5133 c9 -2 23 -2 30 0 6 3 -1 5 -18 5 -16 0 -22 -2 -12 -5z"/>
<path d="M5168 5133 c6 -2 18 -2 25 0 6 3 1 5 -13 5 -14 0 -19 -2 -12 -5z"/>
<path d="M4153 5123 c9 -2 25 -2 35 0 9 3 1 5 -18 5 -19 0 -27 -2 -17 -5z"/>
<path d="M4665 5115 c-25 -12 -26 -14 -5 -9 28 7 60 23 45 23 -5 0 -23 -6 -40
-14z"/>
<path d="M4960 5120 c8 -5 22 -9 30 -9 10 0 8 3 -5 9 -27 12 -43 12 -25 0z"/>
<path d="M5088 5123 c6 -2 18 -2 25 0 6 3 1 5 -13 5 -14 0 -19 -2 -12 -5z"/>
<path d="M5238 5123 c7 -3 16 -2 19 1 4 3 -2 6 -13 5 -11 0 -14 -3 -6 -6z"/>
<path d="M5150 5110 c14 -4 34 -8 45 -8 16 0 15 2 -5 8 -14 4 -34 8 -45 8 -16
0 -15 -2 5 -8z"/>
<path d="M5298 5113 c7 -3 16 -2 19 1 4 3 -2 6 -13 5 -11 0 -14 -3 -6 -6z"/>
<path d="M5398 5098 c4 -17 2 -20 -12 -15 -9 4 -15 3 -12 -2 8 -12 -29 -20
-104 -22 l-65 -2 66 -6 c36 -3 75 -13 85 -21 15 -11 16 -11 7 0 -22 24 -14 32
25 26 26 -4 31 -3 17 4 -17 7 -18 9 -2 9 9 1 17 5 17 11 0 6 9 6 26 -1 15 -5
29 -8 31 -5 2 2 -12 9 -31 16 -20 6 -36 16 -36 21 0 5 -4 9 -9 9 -5 0 -7 -10
-3 -22z"/>
<path d="M4023 5103 c9 -2 23 -2 30 0 6 3 -1 5 -18 5 -16 0 -22 -2 -12 -5z"/>
<path d="M5018 5103 c7 -3 16 -2 19 1 4 3 -2 6 -13 5 -11 0 -14 -3 -6 -6z"/>
<path d="M3963 5093 c9 -2 23 -2 30 0 6 3 -1 5 -18 5 -16 0 -22 -2 -12 -5z"/>
<path d="M5080 5084 c56 -25 84 -32 105 -24 15 6 11 8 -16 8 -20 0 -50 7 -67
16 -17 9 -37 16 -44 16 -7 -1 3 -8 22 -16z"/>
<path d="M5278 5083 c7 -3 16 -2 19 1 4 3 -2 6 -13 5 -11 0 -14 -3 -6 -6z"/>
<path d="M5030 5069 c0 -5 5 -7 10 -4 6 3 10 8 10 11 0 2 -4 4 -10 4 -5 0 -10
-5 -10 -11z"/>
<path d="M5318 5073 c7 -3 16 -2 19 1 4 3 -2 6 -13 5 -11 0 -14 -3 -6 -6z"/>
<path d="M5071 5046 c10 -9 149 -76 149 -71 0 5 -136 75 -146 75 -4 0 -5 -2
-3 -4z"/>
<path d="M5468 5033 c7 -3 16 -2 19 1 4 3 -2 6 -13 5 -11 0 -14 -3 -6 -6z"/>
<path d="M3588 5013 c7 -3 16 -2 19 1 4 3 -2 6 -13 5 -11 0 -14 -3 -6 -6z"/>
<path d="M5397 5003 c12 -10 34 -26 48 -36 14 -11 23 -23 19 -30 -4 -7 -4 -9
1 -5 4 4 31 -15 58 -42 53 -54 80 -70 32 -20 -16 17 -25 30 -20 30 5 0 -7 11
-26 25 -19 14 -38 31 -44 38 -5 7 -28 23 -50 36 -27 15 -33 17 -18 4z"/>
<path d="M5574 5006 c11 -9 24 -16 30 -16 12 0 7 5 -24 19 -24 11 -24 11 -6
-3z"/>
<path d="M3548 5003 c7 -3 16 -2 19 1 4 3 -2 6 -13 5 -11 0 -14 -3 -6 -6z"/>
<path d="M5300 5000 c8 -5 20 -10 25 -10 6 0 3 5 -5 10 -8 5 -19 10 -25 10 -5
0 -3 -5 5 -10z"/>
<path d="M5681 4996 c2 -2 15 -9 29 -15 24 -11 24 -11 6 3 -16 13 -49 24 -35
12z"/>
<path d="M5360 4975 c14 -8 30 -14 35 -14 6 0 -1 6 -15 14 -14 8 -29 14 -35
14 -5 0 1 -6 15 -14z"/>
<path d="M3260 4960 c-8 -5 -10 -10 -5 -10 6 0 17 5 25 10 8 5 11 10 5 10 -5
0 -17 -5 -25 -10z"/>
<path d="M5230 4967 c0 -2 18 -16 39 -30 22 -15 63 -47 91 -72 28 -25 54 -45
58 -45 7 1 -8 14 -89 81 -49 40 -99 74 -99 66z"/>
<path d="M5420 4950 c8 -5 20 -10 25 -10 6 0 3 5 -5 10 -8 5 -19 10 -25 10 -5
0 -3 -5 5 -10z"/>
<path d="M3330 4940 c-18 -12 -2 -12 25 0 13 6 15 9 5 9 -8 0 -22 -4 -30 -9z"/>
<path d="M5550 4925 c14 -8 30 -14 35 -14 6 0 -1 6 -15 14 -14 8 -29 14 -35
14 -5 0 1 -6 15 -14z"/>
<path d="M3150 4870 c-8 -5 -10 -10 -5 -10 6 0 17 5 25 10 8 5 11 10 5 10 -5
0 -17 -5 -25 -10z"/>
<path d="M5660 4876 c0 -3 9 -10 20 -16 11 -6 20 -8 20 -6 0 3 -9 10 -20 16
-11 6 -20 8 -20 6z"/>
<path d="M5770 4855 c13 -14 26 -25 28 -25 3 0 -5 11 -18 25 -13 14 -26 25
-28 25 -3 0 5 -11 18 -25z"/>
<path d="M5650 4846 c0 -2 7 -7 16 -10 8 -3 12 -2 9 4 -6 10 -25 14 -25 6z"/>
<path d="M5711 4816 c2 -2 15 -9 29 -15 24 -11 24 -11 6 3 -16 13 -49 24 -35
12z"/>
<path d="M5455 4768 c22 -27 41 -48 43 -48 7 0 -36 56 -59 75 -12 11 -5 -1 16
-27z"/>
<path d="M6160 4695 c13 -14 26 -25 28 -25 3 0 -5 11 -18 25 -13 14 -26 25
-28 25 -3 0 5 -11 18 -25z"/>
<path d="M5510 4690 c6 -11 13 -20 16 -20 2 0 0 9 -6 20 -6 11 -13 20 -16 20
-2 0 0 -9 6 -20z"/>
<path d="M6204 4655 c1 -8 8 -21 16 -28 12 -10 12 -9 2 4 -6 9 -9 18 -6 21 3
3 1 9 -4 12 -6 3 -9 -1 -8 -9z"/>
<path d="M5547 4625 c9 -19 18 -33 21 -31 4 5 -26 66 -33 66 -3 0 3 -16 12
-35z"/>
<path d="M6275 4600 c10 -11 20 -20 23 -20 3 0 -3 9 -13 20 -10 11 -20 20 -23
20 -3 0 3 -9 13 -20z"/>
<path d="M6230 4603 c0 -5 12 -20 26 -34 24 -21 26 -22 16 -3 -13 25 -42 50
-42 37z"/>
<path d="M6180 4576 c0 -3 9 -10 20 -16 11 -6 20 -8 20 -6 0 3 -9 10 -20 16
-11 6 -20 8 -20 6z"/>
<path d="M2990 4540 c-9 -6 -10 -10 -3 -10 6 0 15 5 18 10 8 12 4 12 -15 0z"/>
<path d="M6230 4546 c0 -3 9 -10 20 -16 11 -6 20 -8 20 -6 0 3 -9 10 -20 16
-11 6 -20 8 -20 6z"/>
<path d="M6283 4525 c0 -8 4 -12 9 -9 5 3 6 10 3 15 -9 13 -12 11 -12 -6z"/>
<path d="M6415 4470 c27 -27 51 -50 54 -50 3 0 -17 23 -44 50 -27 28 -51 50
-54 50 -3 0 17 -22 44 -50z"/>
<path d="M6316 4485 c9 -14 13 -25 8 -25 -4 0 2 -10 13 -22 12 -13 29 -42 38
-66 10 -24 20 -40 23 -37 3 3 62 -50 131 -117 l126 -123 -138 141 c-75 77
-137 147 -137 154 0 8 24 -8 53 -35 29 -28 20 -17 -20 24 -40 41 -73 78 -73
83 0 12 14 10 29 -4 9 -8 11 -9 7 -2 -3 7 -22 21 -41 33 l-35 20 16 -24z"/>
<path d="M6260 4465 c13 -14 26 -25 28 -25 3 0 -5 11 -18 25 -13 14 -26 25
-28 25 -3 0 5 -11 18 -25z"/>
<path d="M2561 4436 c-8 -10 -9 -16 -1 -21 5 -3 10 -5 11 -3 4 18 7 38 4 38
-1 0 -8 -6 -14 -14z"/>
<path d="M6390 4446 c0 -2 8 -10 18 -17 15 -13 16 -12 3 4 -13 16 -21 21 -21
13z"/>
<path d="M6300 4437 c0 -2 15 -16 33 -33 l32 -29 -29 33 c-28 30 -36 37 -36
29z"/>
<path d="M6430 4416 c0 -2 8 -10 18 -17 15 -13 16 -12 3 4 -13 16 -21 21 -21
13z"/>
<path d="M2599 4393 c-13 -16 -12 -17 4 -4 16 13 21 21 13 21 -2 0 -10 -8 -17
-17z"/>
<path d="M2489 4353 l-34 -38 38 34 c34 33 42 41 34 41 -2 0 -19 -17 -38 -37z"/>
<path d="M6260 4377 c0 -2 15 -16 33 -33 l32 -29 -29 33 c-28 30 -36 37 -36
29z"/>
<path d="M6496 4359 c9 -10 20 -17 24 -14 4 2 20 -13 36 -35 16 -22 35 -42 43
-45 7 -3 -10 21 -37 53 -28 32 -58 59 -67 59 -13 0 -13 -2 1 -18z"/>
<path d="M2573 4358 c-15 -20 -25 -38 -20 -38 3 0 12 11 21 25 17 26 16 35 -1
13z"/>
<path d="M2515 4349 c-4 -6 -5 -12 -2 -15 2 -3 7 2 10 11 7 17 1 20 -8 4z"/>
<path d="M2495 4309 c-4 -6 -5 -12 -2 -15 2 -3 7 2 10 11 7 17 1 20 -8 4z"/>
<path d="M6400 4318 c0 -4 4 -17 9 -30 4 -13 11 -41 15 -62 l8 -40 -47 57
c-25 31 -48 57 -51 57 -3 0 21 -32 52 -70 l57 -71 -7 -112 c-4 -61 -5 -109 -1
-106 3 4 9 51 13 105 l7 99 90 -135 c50 -75 115 -179 144 -233 30 -53 56 -95
58 -93 10 10 -198 348 -269 439 -19 24 -35 60 -43 102 -12 55 -34 115 -35 93z"/>
<path d="M6560 4235 c35 -36 67 -65 69 -65 3 0 -24 29 -59 65 -35 36 -67 65
-69 65 -3 0 24 -29 59 -65z"/>
<path d="M2470 4189 c-7 -11 -10 -23 -7 -25 2 -2 9 7 15 21 14 30 7 33 -8 4z"/>
<path d="M2335 4100 c-37 -38 -72 -67 -76 -64 -4 2 -10 1 -13 -4 -3 -5 1 -9 9
-9 8 0 47 33 87 74 40 40 70 73 67 73 -2 0 -36 -31 -74 -70z"/>
<path d="M6655 4130 c10 -11 20 -20 23 -20 3 0 -3 9 -13 20 -10 11 -20 20 -23
20 -3 0 3 -9 13 -20z"/>
<path d="M6715 4106 c10 -14 19 -26 22 -26 7 0 -17 39 -28 46 -6 3 -3 -5 6
-20z"/>
<path d="M6670 4065 c13 -14 26 -25 28 -25 3 0 -5 11 -18 25 -13 14 -26 25
-28 25 -3 0 5 -11 18 -25z"/>
<path d="M6725 4000 c10 -11 20 -20 23 -20 3 0 -3 9 -13 20 -10 11 -20 20 -23
20 -3 0 3 -9 13 -20z"/>
<path d="M2219 3988 c-7 -13 -19 -34 -27 -48 -14 -24 -13 -24 3 -5 20 24 48
75 41 75 -3 0 -11 -10 -17 -22z"/>
<path d="M2366 3965 c-9 -26 -7 -32 5 -12 6 10 9 21 6 23 -2 3 -7 -2 -11 -11z"/>
<path d="M6845 3833 c15 -24 30 -43 32 -43 7 0 -31 61 -46 73 -8 7 -2 -7 14
-30z"/>
<path d="M2116 3803 c-6 -14 -5 -15 5 -6 7 7 10 15 7 18 -3 3 -9 -2 -12 -12z"/>
<path d="M2292 3728 c-12 -48 -22 -93 -21 -100 0 -7 12 28 25 77 13 50 22 94
21 100 -2 5 -13 -30 -25 -77z"/>
<path d="M6900 3791 c0 -6 4 -13 10 -16 6 -3 7 1 4 9 -7 18 -14 21 -14 7z"/>
<path d="M2087 3745 c-24 -50 -20 -58 4 -12 11 22 19 41 17 43 -3 2 -12 -12
-21 -31z"/>
<path d="M6900 3740 c6 -11 13 -20 16 -20 2 0 0 9 -6 20 -6 11 -13 20 -16 20
-2 0 0 -9 6 -20z"/>
<path d="M6940 3671 c11 -23 25 -39 30 -36 6 4 10 8 10 11 0 3 -4 3 -9 0 -5
-3 -14 8 -21 24 -7 17 -17 33 -22 36 -5 3 0 -13 12 -35z"/>
<path d="M2067 3669 c4 -13 8 -18 11 -10 2 7 -1 18 -6 23 -8 8 -9 4 -5 -13z"/>
<path d="M2124 3658 l-19 -23 23 19 c21 18 27 26 19 26 -2 0 -12 -10 -23 -22z"/>
<path d="M2081 3632 c-1 -7 -5 -10 -11 -7 -5 3 -10 -3 -10 -14 0 -10 -9 -40
-20 -65 -10 -25 -16 -46 -12 -46 17 1 30 18 42 55 7 22 20 49 29 59 9 11 11
16 4 13 -6 -4 -14 -1 -16 5 -4 10 -6 10 -6 0z"/>
<path d="M6971 3514 c0 -11 3 -14 6 -6 3 7 2 16 -1 19 -3 4 -6 -2 -5 -13z"/>
<path d="M1950 3405 c0 -5 4 -16 9 -23 6 -11 10 -10 15 4 3 9 4 19 1 22 -3 3
-5 -1 -5 -9 0 -11 -2 -11 -10 1 -5 8 -10 11 -10 5z"/>
<path d="M1940 3371 c0 -6 4 -13 10 -16 6 -3 7 1 4 9 -7 18 -14 21 -14 7z"/>
<path d="M1922 3300 c-7 -29 -11 -55 -9 -57 7 -6 30 84 25 98 -2 6 -9 -12 -16
-41z"/>
<path d="M1981 3304 c0 -11 3 -14 6 -6 3 7 2 16 -1 19 -3 4 -6 -2 -5 -13z"/>
<path d="M6925 3248 c24 -83 49 -157 53 -154 4 5 -49 176 -55 176 -2 0 -1 -10
2 -22z"/>
<path d="M1901 3214 c0 -11 3 -14 6 -6 3 7 2 16 -1 19 -3 4 -6 -2 -5 -13z"/>
<path d="M1961 3214 c0 -11 3 -14 6 -6 3 7 2 16 -1 19 -3 4 -6 -2 -5 -13z"/>
<path d="M7114 3195 c12 -84 40 -225 44 -221 5 6 -25 181 -38 221 l-10 30 4
-30z"/>
<path d="M1891 3174 c0 -11 3 -14 6 -6 3 7 2 16 -1 19 -3 4 -6 -2 -5 -13z"/>
<path d="M1952 3170 c0 -14 2 -19 5 -12 2 6 2 18 0 25 -3 6 -5 1 -5 -13z"/>
<path d="M1942 3115 c0 -16 2 -22 5 -12 2 9 2 23 0 30 -3 6 -5 -1 -5 -18z"/>
<path d="M6981 3064 c0 -11 3 -14 6 -6 3 7 2 16 -1 19 -3 4 -6 -2 -5 -13z"/>
<path d="M7062 3060 c0 -14 2 -19 5 -12 2 6 2 18 0 25 -3 6 -5 1 -5 -13z"/>
<path d="M1932 3045 c0 -16 2 -22 5 -12 2 9 2 23 0 30 -3 6 -5 -1 -5 -18z"/>
<path d="M6996 3005 c3 -22 11 -65 19 -95 11 -42 13 -46 9 -15 -3 22 -11 65
-19 95 -11 42 -13 46 -9 15z"/>
<path d="M1862 3000 c0 -14 2 -19 5 -12 2 6 2 18 0 25 -3 6 -5 1 -5 -13z"/>
<path d="M7072 2995 c0 -16 2 -22 5 -12 2 9 2 23 0 30 -3 6 -5 -1 -5 -18z"/>
<path d="M7163 2925 c0 -22 2 -30 4 -17 2 12 2 30 0 40 -3 9 -5 -1 -4 -23z"/>
<path d="M7083 2915 c0 -22 2 -30 4 -17 2 12 2 30 0 40 -3 9 -5 -1 -4 -23z"/>
<path d="M2041 2924 c0 -11 3 -14 6 -6 3 7 2 16 -1 19 -3 4 -6 -2 -5 -13z"/>
<path d="M2025 2860 c-4 -23 -5 -43 -2 -46 2 -3 7 14 11 37 4 23 5 44 2 46 -2
2 -7 -14 -11 -37z"/>
<path d="M1913 2830 c0 -30 2 -43 4 -27 2 15 2 39 0 55 -2 15 -4 2 -4 -28z"/>
<path d="M7032 2820 c0 -19 2 -27 5 -17 2 9 2 25 0 35 -3 9 -5 1 -5 -18z"/>
<path d="M7093 2785 c0 -33 2 -45 4 -27 2 18 2 45 0 60 -2 15 -4 0 -4 -33z"/>
<path d="M2012 2780 c0 -14 2 -19 5 -12 2 6 2 18 0 25 -3 6 -5 1 -5 -13z"/>
<path d="M7043 2740 c0 -25 2 -35 4 -22 2 12 2 32 0 45 -2 12 -4 2 -4 -23z"/>
<path d="M2002 2715 c0 -16 2 -22 5 -12 2 9 2 23 0 30 -3 6 -5 -1 -5 -18z"/>
<path d="M7146 2689 c-3 -13 -7 -58 -11 -99 -3 -41 -8 -93 -10 -115 l-5 -40
10 35 c5 19 14 80 18 135 9 98 8 131 -2 84z"/>
<path d="M1992 2645 c0 -16 2 -22 5 -12 2 9 2 23 0 30 -3 6 -5 -1 -5 -18z"/>
<path d="M7103 2600 c0 -36 2 -50 4 -32 2 17 2 47 0 65 -2 17 -4 3 -4 -33z"/>
<path d="M7093 2430 c0 -25 2 -35 4 -22 2 12 2 32 0 45 -2 12 -4 2 -4 -23z"/>
<path d="M7112 2410 c0 -14 2 -19 5 -12 2 6 2 18 0 25 -3 6 -5 1 -5 -13z"/>
<path d="M1942 2265 c0 -16 2 -22 5 -12 2 9 2 23 0 30 -3 6 -5 -1 -5 -18z"/>
<path d="M7142 2220 c0 -14 2 -19 5 -12 2 6 2 18 0 25 -3 6 -5 1 -5 -13z"/>
<path d="M1952 2200 c0 -14 2 -19 5 -12 2 6 2 18 0 25 -3 6 -5 1 -5 -13z"/>
<path d="M7102 2195 c0 -16 2 -22 5 -12 2 9 2 23 0 30 -3 6 -5 -1 -5 -18z"/>
<path d="M7132 2160 c0 -14 2 -19 5 -12 2 6 2 18 0 25 -3 6 -5 1 -5 -13z"/>
<path d="M1962 2140 c0 -14 2 -19 5 -12 2 6 2 18 0 25 -3 6 -5 1 -5 -13z"/>
<path d="M1982 2135 c0 -16 2 -22 5 -12 2 9 2 23 0 30 -3 6 -5 -1 -5 -18z"/>
<path d="M6992 1995 c-17 -37 -14 -45 4 -12 9 16 14 31 11 33 -2 2 -9 -7 -15
-21z"/>
<path d="M6951 1953 c-10 -26 -10 -27 4 -9 8 11 15 23 15 28 0 15 -7 8 -19
-19z"/>
<path d="M2031 1895 c0 -5 8 -26 19 -45 11 -19 19 -30 19 -25 0 6 -8 26 -19
45 -11 19 -19 31 -19 25z"/>
<path d="M7051 1859 c-6 -18 -11 -37 -10 -43 0 -6 7 7 15 28 8 22 12 41 10 43
-2 2 -9 -10 -15 -28z"/>
<path d="M2121 1802 c-8 -18 -18 -32 -23 -32 -5 0 -7 -4 -4 -9 4 -5 1 -22 -4
-37 -13 -34 -28 -214 -18 -208 4 3 8 -5 8 -18 1 -13 8 -36 16 -53 8 -16 12
-21 9 -10 -20 68 -27 127 -21 188 10 108 17 111 64 26 22 -41 48 -83 57 -94
16 -19 3 7 -64 126 -31 55 -31 57 -16 93 9 21 14 43 12 49 -2 6 -9 -4 -16 -21z"/>
<path d="M2011 1674 c0 -11 3 -14 6 -6 3 7 2 16 -1 19 -3 4 -6 -2 -5 -13z"/>
<path d="M6976 1575 c-9 -26 -7 -32 5 -12 6 10 9 21 6 23 -2 3 -7 -2 -11 -11z"/>
<path d="M2229 1515 c5 -11 17 -29 26 -40 l16 -20 -10 20 c-5 11 -17 29 -26
40 l-16 20 10 -20z"/>
<path d="M6885 1380 c-19 -38 -33 -70 -30 -70 2 0 21 32 40 70 19 39 33 70 30
70 -2 0 -21 -31 -40 -70z"/>
<path d="M2839 1385 c5 -11 17 -29 26 -40 l16 -20 -10 20 c-5 11 -17 29 -26
40 l-16 20 10 -20z"/>
<path d="M2385 1040 c49 -49 92 -90 95 -90 2 0 -36 41 -85 90 -49 50 -92 90
-95 90 -2 0 36 -40 85 -90z"/>
<path d="M6709 1088 c-13 -18 -52 -68 -87 -111 -35 -43 -55 -73 -45 -67 25 17
173 210 160 210 -3 0 -16 -15 -28 -32z"/>
<path d="M6594 1008 l-19 -23 23 19 c12 11 22 21 22 23 0 8 -8 2 -26 -19z"/>
<path d="M6539 943 l-24 -28 28 24 c15 14 27 26 27 28 0 8 -8 1 -31 -24z"/>
<path d="M3180 935 c13 -14 26 -25 28 -25 3 0 -5 11 -18 25 -13 14 -26 25 -28
25 -3 0 5 -11 18 -25z"/>
<path d="M6407 900 c-14 -33 -23 -60 -21 -60 7 0 56 112 51 116 -2 2 -15 -23
-30 -56z"/>
<path d="M6149 863 l-34 -38 38 34 c34 33 42 41 34 41 -2 0 -19 -17 -38 -37z"/>
<path d="M2731 840 c22 -45 96 -160 104 -160 2 0 -21 39 -51 88 -72 117 -78
124 -53 72z"/>
<path d="M2780 820 c23 -27 47 -53 53 -57 7 -4 -10 19 -37 50 -27 31 -51 57
-53 57 -3 0 14 -22 37 -50z"/>
<path d="M2480 855 c0 -8 81 -46 90 -43 4 2 -14 13 -41 25 -27 12 -49 20 -49
18z"/>
<path d="M2840 805 c19 -19 36 -35 39 -35 3 0 -10 16 -29 35 -19 19 -36 35
-39 35 -3 0 10 -16 29 -35z"/>
<path d="M6361 807 c-8 -12 -21 -32 -29 -44 -8 -13 -12 -23 -9 -23 7 0 59 81
55 85 -2 2 -10 -6 -17 -18z"/>
<path d="M6479 813 c-13 -16 -12 -17 4 -4 9 7 17 15 17 17 0 8 -8 3 -21 -13z"/>
<path d="M6429 773 c-13 -16 -12 -17 4 -4 9 7 17 15 17 17 0 8 -8 3 -21 -13z"/>
<path d="M2610 715 c35 -36 67 -65 69 -65 3 0 -24 29 -59 65 -35 36 -67 65
-69 65 -3 0 24 -29 59 -65z"/>
<path d="M2890 767 c0 -2 15 -16 33 -33 l32 -29 -29 33 c-28 30 -36 37 -36 29z"/>
<path d="M2925 660 c49 -49 92 -90 95 -90 2 0 -36 41 -85 90 -49 50 -92 90
-95 90 -2 0 36 -40 85 -90z"/>
<path d="M6379 745 c-1 -3 -2 -8 -3 -12 -1 -5 -5 -15 -10 -23 -6 -9 -1 -8 12
4 12 10 19 23 16 27 -6 10 -13 12 -15 4z"/>
<path d="M2975 690 c10 -11 20 -20 23 -20 3 0 -3 9 -13 20 -10 11 -20 20 -23
20 -3 0 3 -9 13 -20z"/>
<path d="M6369 683 l-24 -28 28 24 c15 14 27 26 27 28 0 8 -8 1 -31 -24z"/>
<path d="M2703 644 c9 -17 23 -37 33 -44 9 -8 4 3 -10 25 -35 51 -42 57 -23
19z"/>
<path d="M2860 645 c13 -14 26 -25 28 -25 3 0 -5 11 -18 25 -13 14 -26 25 -28
25 -3 0 5 -11 18 -25z"/>
<path d="M3010 666 c0 -2 8 -10 18 -17 15 -13 16 -12 3 4 -13 16 -21 21 -21
13z"/>
<path d="M6299 653 c-13 -16 -12 -17 4 -4 9 7 17 15 17 17 0 8 -8 3 -21 -13z"/>
<path d="M3642 600 c13 -22 45 -63 71 -92 l49 -53 -44 55 c-25 30 -55 72 -67
93 -30 50 -38 48 -9 -3z"/>
<path d="M6249 613 c-13 -16 -12 -17 4 -4 16 13 21 21 13 21 -2 0 -10 -8 -17
-17z"/>
<path d="M2950 545 c35 -36 67 -65 69 -65 3 0 -24 29 -59 65 -35 36 -67 65
-69 65 -3 0 24 -29 59 -65z"/>
<path d="M3040 556 c0 -2 8 -10 18 -17 15 -13 16 -12 3 4 -13 16 -21 21 -21
13z"/>
<path d="M4797 478 c-14 -45 -25 -84 -23 -86 2 -2 16 33 31 78 15 45 25 83 23
85 -2 3 -16 -32 -31 -77z"/>
<path d="M5739 543 c-13 -16 -12 -17 4 -4 16 13 21 21 13 21 -2 0 -10 -8 -17
-17z"/>
<path d="M6139 533 l-24 -28 28 24 c25 23 32 31 24 31 -2 0 -14 -12 -28 -27z"/>
<path d="M5525 478 l-60 -63 63 60 c34 33 62 61 62 62 0 8 -10 -1 -65 -59z"/>
<path d="M3610 475 c36 -19 70 -34 75 -34 6 0 -19 15 -55 34 -36 19 -69 34
-75 34 -5 0 19 -15 55 -34z"/>
<path d="M5669 493 c-13 -16 -12 -17 4 -4 16 13 21 21 13 21 -2 0 -10 -8 -17
-17z"/>
<path d="M5930 500 c-8 -5 -10 -10 -5 -10 6 0 17 5 25 10 8 5 11 10 5 10 -5 0
-17 -5 -25 -10z"/>
<path d="M6089 493 c-13 -16 -12 -17 4 -4 9 7 17 15 17 17 0 8 -8 3 -21 -13z"/>
<path d="M3300 466 c0 -3 9 -10 20 -16 11 -6 20 -8 20 -6 0 3 -9 10 -20 16
-11 6 -20 8 -20 6z"/>
<path d="M5049 443 l-24 -28 28 24 c25 23 32 31 24 31 -2 0 -14 -12 -28 -27z"/>
<path d="M5840 460 c-8 -5 -10 -10 -5 -10 6 0 17 5 25 10 8 5 11 10 5 10 -5 0
-17 -5 -25 -10z"/>
<path d="M3350 436 c0 -3 9 -10 20 -16 11 -6 20 -8 20 -6 0 3 -9 10 -20 16
-11 6 -20 8 -20 6z"/>
<path d="M5974 400 c-15 -22 -30 -38 -34 -35 -3 2 -7 -2 -7 -10 0 -8 4 -12 9
-9 11 7 70 94 64 94 -3 0 -18 -18 -32 -40z"/>
<path d="M4989 393 l-24 -28 28 24 c15 14 27 26 27 28 0 8 -8 1 -31 -24z"/>
<path d="M5434 398 l-19 -23 23 19 c12 11 22 21 22 23 0 8 -8 2 -26 -19z"/>
<path d="M5720 410 c-8 -5 -10 -10 -5 -10 6 0 17 5 25 10 8 5 11 10 5 10 -5 0
-17 -5 -25 -10z"/>
<path d="M3120 391 c14 -11 34 -20 45 -20 14 0 16 2 5 6 -8 3 -28 12 -45 20
l-30 14 25 -20z"/>
<path d="M4386 359 c-3 -17 -5 -57 -5 -88 2 -49 3 -45 9 29 8 90 7 111 -4 59z"/>
<path d="M4742 335 c-12 -25 -20 -45 -17 -45 7 0 47 81 43 86 -3 2 -14 -17
-26 -41z"/>
<path d="M5389 363 c-13 -16 -12 -17 4 -4 16 13 21 21 13 21 -2 0 -10 -8 -17
-17z"/>
<path d="M4934 348 l-19 -23 23 19 c12 11 22 21 22 23 0 8 -8 2 -26 -19z"/>
<path d="M5579 323 c-13 -16 -12 -17 4 -4 9 7 17 15 17 17 0 8 -8 3 -21 -13z"/>
<path d="M4180 326 c0 -2 8 -10 18 -17 15 -13 16 -12 3 4 -13 16 -21 21 -21
13z"/>
<path d="M5319 313 c-13 -16 -12 -17 4 -4 9 7 17 15 17 17 0 8 -8 3 -21 -13z"/>
<path d="M3230 316 c0 -3 9 -10 20 -16 11 -6 20 -8 20 -6 0 3 -9 10 -20 16
-11 6 -20 8 -20 6z"/>
<path d="M3380 311 c0 -5 8 -11 18 -14 9 -2 26 -8 37 -12 30 -12 6 9 -27 23
-16 6 -28 8 -28 3z"/>
<path d="M3468 283 c6 -2 18 -2 25 0 6 3 1 5 -13 5 -14 0 -19 -2 -12 -5z"/>
<path d="M4225 270 c10 -11 20 -20 23 -20 3 0 -3 9 -13 20 -10 11 -20 20 -23
20 -3 0 3 -9 13 -20z"/>
<path d="M3528 273 c6 -2 18 -2 25 0 6 3 1 5 -13 5 -14 0 -19 -2 -12 -5z"/>
<path d="M5358 273 c7 -3 16 -2 19 1 4 3 -2 6 -13 5 -11 0 -14 -3 -6 -6z"/>
<path d="M3578 263 c6 -2 18 -2 25 0 6 3 1 5 -13 5 -14 0 -19 -2 -12 -5z"/>
<path d="M3686 255 c4 -8 15 -15 26 -15 19 0 19 -1 -1 -26 -12 -15 -21 -39
-21 -54 0 -29 34 -80 53 -80 7 0 5 5 -4 10 -9 5 -22 23 -29 39 -10 26 -10 35
7 63 13 22 26 32 39 30 10 -1 35 -5 54 -7 l35 -5 -30 11 c-16 6 -51 19 -77 30
-56 23 -59 23 -52 4z"/>
<path d="M3638 253 c6 -2 18 -2 25 0 6 3 1 5 -13 5 -14 0 -19 -2 -12 -5z"/>
<path d="M4740 250 c-8 -5 -10 -10 -5 -10 6 0 17 5 25 10 8 5 11 10 5 10 -5 0
-17 -5 -25 -10z"/>
<path d="M5464 244 c-18 -14 -18 -15 4 -4 12 6 22 13 22 15 0 8 -5 6 -26 -11z"/>
<path d="M4676 225 c-25 -19 -9 -19 24 0 14 8 19 14 10 14 -8 0 -24 -6 -34
-14z"/>
<path d="M4290 195 c13 -14 26 -25 28 -25 3 0 -5 11 -18 25 -13 14 -26 25 -28
25 -3 0 5 -11 18 -25z"/>
<path d="M5400 210 c-9 -6 -10 -10 -3 -10 6 0 15 5 18 10 8 12 4 12 -15 0z"/>
<path d="M5480 210 c-8 -5 -10 -10 -5 -10 6 0 17 5 25 10 8 5 11 10 5 10 -5 0
-17 -5 -25 -10z"/>
<path d="M4522 175 c0 -16 2 -22 5 -12 2 9 2 23 0 30 -3 6 -5 -1 -5 -18z"/>
<path d="M4574 175 c-11 -22 -10 -23 5 -16 9 5 25 17 36 26 20 16 20 16 -2 6
-13 -7 -23 -7 -25 -1 -2 5 -8 -2 -14 -15z"/>
<path d="M3968 183 c7 -3 16 -2 19 1 4 3 -2 6 -13 5 -11 0 -14 -3 -6 -6z"/>
<path d="M4988 183 c6 -2 18 -2 25 0 6 3 1 5 -13 5 -14 0 -19 -2 -12 -5z"/>
<path d="M4938 173 c7 -3 16 -2 19 1 4 3 -2 6 -13 5 -11 0 -14 -3 -6 -6z"/>
<path d="M4888 163 c7 -3 16 -2 19 1 4 3 -2 6 -13 5 -11 0 -14 -3 -6 -6z"/>
<path d="M4135 145 c17 -8 37 -14 45 -14 8 0 -1 7 -20 14 -46 18 -64 17 -25 0z"/>
<path d="M4525 130 c-10 -11 -14 -20 -9 -20 5 0 15 9 22 20 7 11 11 20 9 20
-2 0 -12 -9 -22 -20z"/>
<path d="M4990 120 c-8 -5 -10 -10 -5 -10 6 0 17 5 25 10 8 5 11 10 5 10 -5 0
-17 -5 -25 -10z"/>
<path d="M4545 74 c-9 -15 -12 -23 -6 -20 11 7 35 46 28 46 -3 0 -12 -12 -22
-26z"/>
<path d="M3783 73 c9 -2 23 -2 30 0 6 3 -1 5 -18 5 -16 0 -22 -2 -12 -5z"/>
<path d="M4728 43 c7 -3 16 -2 19 1 4 3 -2 6 -13 5 -11 0 -14 -3 -6 -6z"/>
<path d="M5090 20 c-9 -6 -10 -10 -3 -10 6 0 15 5 18 10 8 12 4 12 -15 0z"/>
</g>
</svg>
